<?xml version="1.0"?>
<svg xmlns:rdf="http://www.w3.org/1999/02/22-rdf-syntax-ns#" xmlns="http://www.w3.org/2000/svg" xmlns:cc="http://web.resource.org/cc/" xmlns:dc="http://purl.org/dc/elements/1.1/" xmlns:svg="http://www.w3.org/2000/svg" id="Layer_1" xml:space="preserve" viewBox="0 0 417.051 441.337" version="1.0">
<g id="g5" stroke="#000" stroke-miterlimit="10" fill-rule="evenodd">
		<path id="path7" stroke-linejoin="round" stroke-width=".036" stroke-linecap="round" d="m214.55 229.18c-9.04 4.36-17.72 8.03-27.01 11.54-9.34 3.37-20.59 7.99-27.92 8.84-7.38 0.7-9.18-0.35-15.51-3.97-6.53-3.61-13.81-9.58-22.59-17.72v0l-10.65 9.74-12.398-0.45v0c-1.958 1.15-3.163 3.16-4.017 6.22-0.903 3.07-1.054 6.98-0.853 11.95v0c-1.506 0.05-3.213-0.1-5.322-0.45-2.159-0.45-4.669-0.9-7.532-1.76l0.402 2.67c-0.703 4.06-0.903 8.33-0.402 12.8 0.552 4.32 2.41 9.54 3.063 13.76 0.452 4.06-1.355 6.67-0.401 11.09 0.803 4.32 3.916 10.44 5.271 15.06 1.155 4.47 1.758 8.39 1.808 11.95v0l21.241-2.21v0c-7.99 4.02-16.12 8.34-24.806 12.4-8.786 4.02-19.982 9.44-27.011 12.41-7.18 2.86-11.949 4.41-15.062 4.87v0c-1.005 3.21-1.657 6.32-1.758 9.33-0.2 3.02 0.151 5.63 0.854 8.39v0c-5.121 5.47-10.292 9.54-15.514 12.2-5.322 2.66-11.849 2.36-15.916 3.56-4.117 0.96-6.477 0.56-8.435 2.66-2.359 1.96-3.766 4.82-4.016 9.74-0.251 5.02 0.401 12.3 3.113 19.94 2.611 7.43 7.48 20.28 12.853 24.8 5.271 4.32 14.208 2.51 19.079 1.76 4.719-0.91 9.188-3.87 9.74-6.18 0.251-2.41-5.523-5.07-7.08-7.98-1.707-2.96-2.008-5.62-2.259-9.74-0.352-4.22-0.201-9.39 0.452-15.52v0c1.355-2.16 3.364-4.52 6.225-7.08 2.862-2.61 6.226-5.42 10.645-8.43v0c2.962 5.37 6.577 9.29 11.045 11.95 4.368 2.51 11.598 4.22 15.514 3.56 3.615-0.95 4.368-4.06 7.079-7.98 2.611-4.17 3.917-11.9 9.339-15.06 5.469-3.11 16.969-1.06 23.049-3.11 5.67-2.21 7.78-6.88 11.94-9.75 4.17-2.91 7.64-5.67 13.31-7.52 5.62-1.96 13.05-3.57 20.38-4.42 7.18-1.11 15.77-2.01 23.05-1.36 7.08 0.55 14.11 3.01 19.93 4.87 5.67 1.76 8.49 3.62 14.61 5.77 6.08 2.11 14.66 3.77 21.69 7.08 6.88 3.17 15.01 10.6 19.53 12 4.37 1.21 4.67-1.7 7.08-4.46 2.26-2.87 4.47-6.93 6.63-12.41v0c6.47-0.1 11.95 0.86 16.41 2.66 4.42 1.81 6.78 5.98 10.2 8.44 3.36 2.26 6.47 6.83 9.74 5.77 3.21-1.25 7.28-8.83 9.28-12.45 1.71-3.81 0.05-5.82 1.81-9.29 1.81-3.66 6.18-7.63 8.84-11.09 2.56-3.42 4.82-4.87 6.22-8.84 1.16-4.06 1.96-12.25 0.86-15.06-1.41-2.81-6.08-3.01-8.39-1.76-2.31 1.11-2.66 6.03-5.32 8.39-2.91 2.06-7.33 2.71-11.1 4.87-3.71 2.1-5.67 6.92-11.09 8.43-5.63 1.46-12.6 1.61-21.69 0.45v0c2.61-5.72 2.11-9.64-1.31-11.95-3.61-2.36-13.8-0.5-19.53-1.8-5.87-1.51-10.24-4.92-15.06-6.18-5.07-1.4-10.89 0.2-14.16-1.35-3.21-1.71-4.92-5.73-5.32-7.99-0.55-2.26 0.25-4.01 2.21-5.27v0c0.75 3.92 2.96 5.87 6.63 6.63 3.76 0.6 10.59-3.01 15.06-3.12 3.97-0.35 6.78 1.66 9.79 1.76 3.01-0.1 5.87-1.5 8.39-1.3 2.36 0.25 4.36 2.81 6.22 2.66 1.76-0.35 3.52-1.76 4.87-4.42v0c3.21-0.4 5.57-1 7.08-1.81 1.41-0.9 2.06-1.85 1.76-3.06v0c2.01-0.1 3.16-0.25 4.01-0.45 0.71-0.25 0.86-0.55 0.46-0.9v0c1.75 2.6 3.46 3.76 5.32 4.01 1.81 0.05 3.71-0.8 5.72-3.11v0c2.36-0.05 3.92-0.5 4.87-1.36 0.86-0.95 1.01-2.2 0.45-3.96v0c0.96 0.2 1.66 0.05 2.66-0.45 0.96-0.61 1.66-1.36 2.66-2.67v0c1.21 3.92 3.22 7.28 6.23 10.65 2.96 3.31 6.73 6.07 11.5 8.84v0l19.93 0.45v0c5.22-2.81 9.59-6.43 13.31-11.05 3.66-4.82 6.47-11.6 8.43-16.87 1.61-5.37 4.02-10.89 2.21-14.61-1.81-3.66-8.08-6.17-12.85-7.53-4.92-1.5-10.4-2.16-16.42-1.76v0l4.47-5.77v0c2.31 1.01 5.27 0.85 9.29-0.45 3.86-1.36 8.58-3.86 14.16-7.53v0c2.3 2.76 4.66 5.27 7.07 7.53 2.36 2.21 4.67 4.07 7.13 5.77v0c1.96-1.25 5.27-3.06 9.74-4.87 4.52-1.85 10.14-4.27 17.27-6.67v0c-0.15-2.97-1.25-6.93-3.11-11.7-1.91-4.97-4.77-10.55-8.38-17.32v0c-5.83-1.56-10.04-3.47-12.86-5.73-2.81-2.41-3.76-5.07-4.01-7.98-0.41-3.06 0.2-6.12 1.8-9.74v0l-7.98-15.11v0c-5.67 1-10.84 2.36-15.51 4.47-4.77 1.96-8.99 4.47-12.86 7.53v0c-0.25 4.32 0 8.23 1.31 11.95 1.21 3.66 3.06 6.78 5.77 9.74v0c-3.01-0.05-5.37 0.55-7.08 1.8-1.8 1.11-2.15 2.42-3.56 5.28-1.56 2.71-3.26 8.28-5.32 11.09-2.11 2.71-4.47 4.42-7.08 5.32v0c-2.01-1.45-4.52-1.95-7.53-1.3-3.21 0.55-7.28 4.37-10.65 4.87-3.36 0.4-4.72-3.26-9.28-2.26-4.77 0.8-11.05 3.31-19.03 7.53v0c0.75-1.26 1.96-3.01 3.06-5.27 1.26-2.31 2.41-5.12 4.02-8.44v0c3.66 1.76 7.08 1.91 10.64 0.46 3.52-1.51 6.78-4.62 10.19-9.34v0c3.17 0.2 5.23-0.05 6.18-1.31 0.8-1.41 0.2-3.51-0.45-5.77-0.7-2.16-4.07-4.67-3.11-7.53 1.05-3.12 3.76-6.53 8.88-10.65v0c3.32 0.71 6.13 1.01 8.44 0.91 2.26-0.25 4.67 0.9 5.32-1.76 0.4-2.96-0.8-10.24-2.26-14.66-1.51-4.32-3.72-8.29-6.63-11.5v0c1.86-1.66 2.71-4.32 3.11-7.98 0.26-3.87-0.2-8.34-1.35-14.16v0c-13.61 5.82-27.16 12.9-41.62 21.24-14.51 8.28-28.97 17.67-44.33 28.36l-37.21 23.05z"/>
		<path id="path9" stroke-linejoin="round" d="m121.17 231.14c5.12 5.02 10.49 9.33 16.31 13.15 5.73 3.71 15.22 6.98 18.43 9.19 3.16 1.91 3.01 3.21 0.5 3.16-2.76-0.1-9.44-0.65-16.57-3.41-7.23-2.86-15.81-7.33-26.3-13.41v0c0.55-1.5 1.7-3.06 2.91-4.47 1.15-1.5 2.91-2.91 4.72-4.21v0z" stroke-linecap="round" stroke-width=".036" fill="#fff"/>
		<path id="path11" stroke-linejoin="round" d="m99.878 240.07l10.242 0.81v0c5.42 2.81 10.44 5.42 15.26 7.63 4.72 2.06 11.3 4.42 13.16 5.52 1.65 1.1 0.3 2.06-2.92 1.31-3.46-0.86-10.79-4.17-16.56-6.08-5.93-2.01-15.02-4.32-18.18-5.77-3.312-1.56-3.462-2.77-1.002-3.42v0z" stroke-linecap="round" stroke-width=".036" fill="#fff"/>
		<path id="path13" stroke-linejoin="round" d="m98.522 244.54c0.201 0.25 2.558 1.16 7.628 2.91 5.03 1.76 12.2 4.02 22.09 7.33v0l-0.75 4.77v0c-6.98-1.05-12.95-1.85-17.92-2.41-5.02-0.65-8.99-0.85-12.102-1v0c-0.903-2.21-1.255-4.17-1.054-6.08 0.151-2 0.854-3.71 2.108-5.52v0z" stroke-linecap="round" stroke-width=".036" fill="#fff"/>
		<path id="path15" stroke-linejoin="round" d="m126.69 262.16c-3.72 0.56-8.94 0.26-16.07-0.5-7.13-0.85-15.762-2.36-26.306-4.52v0c-1.104 4.52-1.355 8.64-0.753 12.9 0.603 4.07 3.414 8.49 4.167 12.11 0.502 3.41-0.502 6.07-0.502 8.93-0.151 2.86-0.301 5.52 0.502 8.19 0.803 2.51 3.414 4.52 4.518 7.38 1.004 2.76 1.306 5.97 1.306 9.44v0c4.619 0.05 10.698-0.31 18.428-1.06 7.58-0.8 16.26-1.51 27.61-3.67 11.35-2.45 26.86-6.57 39.97-10.24 12.95-3.86 25.15-7.73 37.35-12.15v0c-1.66-4.31-3.51-8.23-5.77-11.54-2.36-3.47-5.58-5.73-7.88-8.69-2.42-3.11-5.73-5.92-6.08-9.19-0.3-3.41 3.62-10.69 4.22-10.79 0.2-0.3-2.06 6.82-1.56 9.74 0.55 2.76 2.46 4.46 4.97 7.63 2.46 3.11 6.58 7.58 9.24 11.29 2.36 3.52 3.81 6.48 5.52 10.25 1.56 3.66 2.36 7.38 4.72 11.35 2.36 3.66 6.88 8.98 9.49 11.29 2.36 2.11 3.36 2.31 4.97 2.36 1.46 0.05 4.22-0.75 4.22-1.86-0.15-1.1-3.52-2.91-4.47-5.22-0.96-2.66-1.61-6.37-0.8-9.99 0.8-3.77 5.52-11.7 5.82-11.6 0.15 0-4.37 8.34-4.47 11.85-0.15 3.41 2.11 6.33 3.67 8.94 1.25 2.61 2.46 5.17 4.97 6.33 2.51 0.9 7.88-0.56 10.29-0.31 2.16 0.2 1.76 1.26 3.66 1.61 1.96 0.15 5.98-1 8.19-0.55 1.91 0.25 3.01 2.41 4.47 2.41 1.55-0.2 4.16-1.26 4.72-3.17 0.4-2.1-1.66-5.27-2.11-8.68-0.61-3.67-1.36-8.14-1.31-11.85 0.05-3.57 1.46-8.08 1.31-9.49-0.35-1.61-2.06-0.6-3.17 0.3-1.2 0.8-3.16 2.81-3.91 4.47-1 1.61-1 4.72-1.35 4.72-0.46-0.2-1.16-3.87-0.76-5.77 0.3-2.06 1.26-3.82 2.86-5.83v0c-3.31 0.6-6.37 1.06-9.18 0.81-2.87-0.11-5.43-0.91-7.89-1.86v0c-3.66 0.55-5.67 1.35-6.57 2.41-0.86 0.95 2.3 2.26 1.55 3.92-0.95 1.7-6.32 5.72-6.83 5.82-0.65-0.25 3.12-4.47 3.17-6.08-0.2-1.6-3.57-2-3.72-3.16-0.1-1.46 1.26-3.06 2.91-4.22 1.71-1.2 5.58-1.15 6.58-2.36 0.6-1.4-1-3.61-2.11-5.27-1.4-1.6-3.96-1.65-4.97-4.21-1.15-2.82 1.01-8.04-1.05-11.8-2.26-3.92-10.19-8.59-11.6-10.55-1.36-2.06 1.86-1.5 3.41-1.05 1.41 0.45 3.16 1.4 5.27 3.41v0c1.91-2.36 4.37-4.37 7.38-6.02 2.97-1.76 7.89-5.42 10.5-4.22 2.36 0.9 3.26 7.43 4.47 10.49 1.25 3.02 2.16 5.73 2.91 7.94v0c4.01-7.03 7.63-14.41 11.04-22.14 3.32-8.04 7.58-17.48 8.94-24.45 1.21-6.98 0.75-12.45-1.56-16.82v0c-10.29 6.32-20.23 12.5-30.77 19.48-10.5 6.83-19.73 15.01-31.58 21.28-12.15 6.18-29.52 11.8-39.72 15.52-10.14 3.56-17.07 5.42-20.78 5.77v0c2.21 1.71 3.01 3.36 2.61 4.77-0.6 1.51-0.3 3.11-5.27 3.67-5.07 0.15-20.19-1.91-24.45-1.56-4.22 0.4-1.41 2.06-1.06 4.17 0.15 1.95 1.06 4.41 2.11 7.93 0.8 3.41 1.96 10.8 3.67 12.85 1.65 1.96 3.56-0.1 6.87-0.75 3.22-0.9 10.85-4.02 12.61-3.72 1.55 0.16 0 3.67-2.91 5.53-3.22 1.75-11.3 6.27-14.97 5.82-3.56-0.75-4.92-4.67-6.57-8.43-1.86-3.72-2.92-9.85-3.97-13.16-1.06-3.26-1.91-5.52-2.36-6.58v0z" stroke-linecap="round" stroke-width=".036" fill="#fff"/>
		<path id="path17" stroke-linejoin="round" stroke-width=".036" stroke-linecap="round" d="m91.946 280.84c-0.352 2.41 1.405 9.34 3.163 13.4 1.657 4.02 6.121 9.39 6.831 10.3 0.5 0.5-1.961-3.42-3.116-6.33-1.355-3.01-4.368-10.24-4.217-11.05 0.101-0.7 2.31 3.67 4.72 6.33 2.263 2.66 8.733 8.54 9.193 8.69 0.14-0.2-5.53-6.98-7.34-9.49-1.903-2.81-3.811-6.08-3.409-6.33 0.452-0.25 3.619 3.62 6.029 5.02 2.26 1.36 7.43 2.87 7.38 2.61-0.36-0.6-6.28-2.81-8.69-5.27-2.46-2.41-4.117-7.98-5.774-9.18-1.909-1.56-4.469-1.06-4.77 1.3v0z"/>
		<path id="path19" stroke-linejoin="round" stroke-width=".036" stroke-linecap="round" d="m107.51 281.39c-0.6-0.1 4.02 6.23 7.08 9.69 3.11 3.31 9.94 9.34 10.79 9.74 0.56 0.05-4.26-5.07-7.13-8.38-3.06-3.47-10.19-10.7-10.74-11.05v0z"/>
		<path id="path21" stroke-linejoin="round" stroke-width=".036" stroke-linecap="round" d="m115.39 284.25c0.96 1.36 5.47 6.53 8.14 8.94 2.66 2.31 7.13 4.52 7.38 4.47-0.05-0.3-4.87-3.72-7.13-5.77-2.41-2.31-4.82-5.83-6.28-7.08-1.4-1.41-3.26-1.91-2.11-0.56v0z"/>
		<path id="path23" stroke-linejoin="round" stroke-width=".036" stroke-linecap="round" d="m117.2 283.3c0.95 1.41 5.82 6.28 8.58 8.58 2.62 2.11 7.38 4.32 7.54 4.12-0.05-0.35-5.08-3.46-7.34-5.47-2.56-2.06-5.17-5.67-6.67-6.78-1.51-1.4-3.31-1.75-2.11-0.45v0z"/>
		<path id="path25" stroke-linejoin="round" stroke-width=".036" stroke-linecap="round" d="m119.86 282.45c1.1 1.35 6.33 5.67 9.29 7.73 2.86 1.86 7.83 3.46 7.93 3.46-0.15-0.35-5.27-2.91-7.83-4.77-2.61-1.95-5.67-5.12-7.23-6.17-1.66-1.16-3.42-1.56-2.16-0.25v0z"/>
		<path id="path27" stroke-linejoin="round" stroke-width=".036" stroke-linecap="round" d="m161.93 292.14c-2.36 0-4.81 1.25-6.02 2.41-1.21 1.15-1.81 2.81-1.05 4.16 0.65 1.11 2.15 3.07 4.71 3.17 2.41-0.06 8.39-1.31 9.99-2.62 1.51-1.4 0.41-4.06-0.8-5.27-1.45-1.25-4.57-2-6.83-1.85v0z"/>
		<path id="path29" stroke-linejoin="round" d="m158.77 295.85c0.55-1 1.41-1.55 2.36-1.86 1.05-0.4 2.21-0.25 3.47 0.26 1 0.4 1.95 1.35 2.86 2.66v0c-2.86-0.36-5.78-0.71-8.69-1.06v0z" stroke-linecap="round" stroke-width=".036" fill="#fff"/>
		<path id="path31" stroke-linejoin="round" d="m166.7 298.46c-0.7 0.86-1.5 1.51-2.41 1.76-1 0.15-2.46 0.1-3.41-0.35-1.06-0.55-2.06-1.41-2.81-2.76v0c2.86 0.45 5.72 0.9 8.63 1.35v0z" stroke-linecap="round" stroke-width=".036" fill="#fff"/>
		<path id="path33" stroke-linejoin="round" stroke-width=".036" stroke-linecap="round" d="m201.04 281.84c-1.85-0.05-4.06 1.26-5.07 2.36-1 1.11-1.55 2.92-0.9 4.27 0.55 1.11 1.81 3.06 3.97 3.16 2.16 0 6.82-1.4 8.38-2.66 1.21-1.4 0.35-4.06-0.65-5.27-1.26-1.25-3.87-2.01-5.73-1.86v0z"/>
		<path id="path35" stroke-linejoin="round" d="m198.38 285.56c0.4-1 1.26-1.56 2.01-1.86 0.86-0.4 1.81-0.25 2.86 0.25 0.86 0.41 1.66 1.36 2.41 2.66v0c-2.41-0.35-4.82-0.7-7.28-1.05v0z" stroke-linecap="round" stroke-width=".036" fill="#fff"/>
		<path id="path37" stroke-linejoin="round" d="m205.01 288.17c-0.45 0.85-1.31 1.51-2.01 1.76-1 0.15-1.96 0.1-2.86-0.35-0.95-0.56-1.6-1.46-2.36-2.72v0c2.41 0.41 4.82 0.86 7.23 1.31v0z" stroke-linecap="round" stroke-width=".036" fill="#fff"/>
		<path id="path39" stroke-linejoin="round" stroke-width=".036" stroke-linecap="round" d="m171.17 290.58c0.91 0.6 2.91 1.71 5.22 2.36 2.11 0.6 6.83 0.8 7.38 0.8 0.25-0.3-3.46-1.45-5.52-2.1-2.16-0.91-5.72-2.21-6.83-2.36-1.25-0.21-1.15 0.55-0.25 1.3v0z"/>
		<path id="path41" stroke-linejoin="round" stroke-width=".036" stroke-linecap="round" d="m175.64 287.97c0.9 0.6 2.91 1.71 5.22 2.36 2.11 0.45 6.83 0.9 7.38 0.75 0.25-0.3-3.46-1.46-5.52-2.11-2.16-0.9-5.72-2.21-6.83-2.36-1.25-0.1-1.15 0.56-0.25 1.36v0z"/>
		<path id="path43" stroke-linejoin="round" stroke-width=".036" stroke-linecap="round" d="m179.81 286.11c0.8 0.6 3.01 1.71 5.27 2.36 2.11 0.6 6.83 0.8 7.38 0.8 0.25-0.3-3.46-1.45-5.52-2.1-2.16-0.91-5.73-2.21-6.83-2.36-1.26-0.2-1.16 0.55-0.3 1.3v0z"/>
		<path id="path45" stroke-linejoin="round" stroke-width=".036" stroke-linecap="round" d="m189.85 276.62c-4.92-1.5-9.94-4.01-13.15-5.77-3.42-1.86-7.34-5.02-6.33-5.02 1-0.1 8.43 3.16 12.6 4.77 3.92 1.56 10.9 4.47 11.85 4.47 0.95-0.2-6.68-4.92-6.02-5.27 0.55-0.51 8.73 3.56 9.44 2.91 0.55-0.81-6.08-6.73-5.78-7.13 0.2-0.45 4.47 3.16 6.83 5.02 2.16 1.81 5.72 4.12 6.83 5.77 1 1.46 1.85 2.96-0.76 3.17-2.86-0.11-10.74-1.46-15.51-2.92v0z"/>
		<path id="path47" stroke-linejoin="round" stroke-width=".036" stroke-linecap="round" d="m194.32 245.04c-5.73 1.51-8.44 2.21-12.4 3.47-4.12 1.4-13.01 4.31-11.55 4.47 1.35-0.16 17.57-4.27 19.98-4.22 2.16 0.1-4.92 3.11-6.33 4.97-1.4 1.65-3.26 5.42-2.1 5.27 0.95-0.4 5.12-4.67 8.43-6.83 3.27-2.21 6.68-4.11 11.05-6.32 4.31-2.41 15.46-7.53 14.46-7.63-1.41-0.16-15.82 4.96-21.54 6.82v0z"/>
		<path id="path49" stroke-linejoin="round" stroke-width=".036" stroke-linecap="round" d="m219.02 235.05c1.4-1 9.09-5.32 12.4-5.22 3.16 0.15 6.73 4.77 6.83 5.52-0.05 0.35-4.12-2.61-6.58-2.66-2.71-0.05-6.58 1.91-8.69 2.36-2.15 0.35-5.47 0.81-3.96 0v0z"/>
		<path id="path51" stroke-linejoin="round" stroke-width=".036" stroke-linecap="round" d="m94.305 267.18c-0.15 0.96 1.657 6.38 2.109 6.58 0.301 0 0.602-4.72 0.301-5.82-0.452-1.11-2.41-1.81-2.41-0.76v0z"/>
		<path id="path53" stroke-linejoin="round" stroke-width=".036" stroke-linecap="round" d="m98.272 266.38c-0.151 0.8 1.657 6.48 2.108 6.58 0.35 0.1 0.5-4.72 0.25-5.78-0.5-1.2-2.258-1.85-2.358-0.8v0z"/>
		<path id="path55" stroke-linejoin="round" stroke-width=".036" stroke-linecap="round" d="m101.79 266.28c0.2 1.15 2.96 6.98 3.61 7.23 0.35-0.1-0.6-5.52-1.1-6.78-0.71-1.4-2.76-1.56-2.51-0.45v0z"/>
		<path id="path57" stroke-linejoin="round" stroke-width=".036" stroke-linecap="round" d="m105.1 266.48c0.45 1.1 4.47 6.18 5.07 6.28 0.35-0.1-1.71-5.33-2.51-6.38-0.9-1.1-3.11-1-2.56 0.1v0z"/>
		<path id="path59" stroke-linejoin="round" stroke-width=".036" stroke-linecap="round" d="m110.17 267.74c0.85 1.15 6.43 6.07 7.23 6.07 0.4-0.4-3.11-5.62-4.32-6.78-1.2-1.05-3.71-0.55-2.91 0.71v0z"/>
		<path id="path61" stroke-linejoin="round" d="m327.16 166.62c-1.9 4.32-4.11 8.28-6.82 12.1-2.77 3.72-7.94 6.58-9.49 10.49-1.71 3.72 0.05 9.99-0.56 12.66-0.65 2.61-2 3.66-3.66 3.16v0c0.1 3.21-0.1 5.27-0.8 6.58-0.71 1.2-1.91 1.45-3.42 0.75v0c1.06 1.81 1.21 3.97 0.25 6.88-0.95 2.86-5.07 7.03-5.77 9.99-0.7 2.86-0.2 5.42 1.31 7.08 1.2 1.51 4.46 2.06 6.87 1.86 2.36-0.26 5.43-1.91 7.63-3.42 2.01-1.91 3.62-5.17 5.23-6.32 1.6-1.01 3.41 0.75 4.47 0.25 0.85-0.66 1.25-1.96 0.8-3.92-0.8-2.16-3.72-6.12-3.92-8.43-0.15-2.51 1.66-4.02 3.52-5.88 1.81-1.86 4.32-3.66 7.53-5.22v0c-1.66-3.77-2.36-6.13-2.11-6.53 0.1-0.55 1.61 2.26 3.16 3.42 1.46 1 3.57 2.26 5.52 2.61 1.91 0.2 4.73 0.6 5.53-1.31 0.55-2.11-0.25-6.93-1.61-10.79-1.45-4.02-3.51-8.04-6.58-12.61v0c-1.75 1.71-3.26 2.77-4.72 3.17-1.65 0.25-3.31 0.5-4.21-0.81-1.01-1.45-1.56-5.47-1.06-6.82 0.55-1.26 2.01-1.01 3.97-0.81 1.81 0 3.82 0.35 6.58 1.06v0c1-3.07 1.6-5.78 1.8-8.14 0.05-2.46-0.3-4.57-1.05-6.32v0c-2.76 1.76-5.57 3.51-8.39 5.27v0z" stroke-linecap="round" stroke-width=".036" fill="#fff"/>
		<path id="path63" stroke-linejoin="round" d="m325.86 176.06c0 1.66 0.25 3.16 0.75 3.97 0.35 0.85 1.05 1.35 2.11 1.3 0.9-0.3 2.41-0.9 3.97-2.36v0c-1.86 0.1-2.97 0.1-3.72 0-0.55-0.3-0.9-0.25-0.5-0.8 0.2-0.5 0.45-1.36 1.31-2.36v0c-1.31 0.05-2.62 0.15-3.92 0.25v0z" stroke-linecap="round" stroke-width=".036" fill="#fff"/>
		<path id="path65" stroke-linejoin="round" d="m330.83 176.61c-0.5-0.1-0.61 0.85-0.5 1.31 0.2 0.3 1.3 0.6 1.55 0.5 0-0.4-0.8-1.71-1.05-1.81v0z" stroke-linecap="round" stroke-width=".036" fill="#fff"/>
		<path id="path67" stroke-linejoin="round" d="m320.84 168.98c-1.36 2.56-3.12 5.17-5.27 8.38-2.36 3.02-6.73 6.38-7.89 10.3-1.2 3.86 1.51 10.39 0.81 12.6-0.86 2.06-2.86 1.91-5.83-0.25v0c1.76 4.47 2.21 7.43 1.36 8.68-0.86 1.26-3.11 0.91-6.58-1.05v0c1.61 2.01 2.46 4.12 2.36 6.32-0.15 2.16-1.96 4.37-2.91 6.83-1.01 2.36-2.41 4.67-2.86 7.13-0.65 2.41-0.2 5.37-0.81 7.33-0.7 1.81-2 3.37-3.16 3.72-1.35 0.25-2.71-0.45-4.47-2.11v0c-2.31 4.02-4.21 6.17-5.52 6.27-1.35 0-2.31-1.85-2.66-5.77v0c4.32-7.78 7.28-14.66 9.49-21.04 2.06-6.52 2.76-12 2.91-16.81 0.05-4.77-0.9-8.49-2.66-11.35v0c4.07-3.67 8.84-7.08 14.51-10.24 5.62-3.22 11.95-6.13 19.18-8.94v0z" stroke-linecap="round" stroke-width=".036" fill="#fff"/>
		<path id="path69" stroke-linejoin="round" d="m295.33 238.67c-1.3 3.46-3.06 7.28-5.82 11.85-2.71 4.52-6.13 9.38-10.24 15.01v0c-4.82-4.77-7.38-6.33-7.89-4.47-0.4 1.81 1.01 6.83 4.98 15.26v0c-4.82-0.75-8.74-1.6-12.36-2.36-3.61-0.85-6.52-1.8-8.93-2.66v0c3.36-4.06 7.58-8.13 12.65-12.6 5.02-4.52 12.9-10.59 17.62-13.96 4.57-3.41 7.83-5.37 9.99-6.07v0z" stroke-linecap="round" stroke-width=".036" fill="#fff"/>
		<path id="path71" stroke-linejoin="round" d="m256.92 238.97c-0.6 4.97-1.1 9.29-1.3 13.15-0.2 3.77 0.15 6.83-0.3 9.74-0.7 2.76-1.71 5.12-3.42 7.08v0c-0.6-1.61-1.3-2.76-2.1-3.66-1.01-0.96-2.77 0.04-3.17-1.61-0.55-1.86 0.91-5.37 0.3-8.39-0.7-3.11-2.36-6.07-4.77-9.48v0c4.37-3.92 7.74-6.18 10.3-7.38 2.51-1.21 3.86-0.96 4.46 0.55v0z" stroke-linecap="round" stroke-width=".036" fill="#fff"/>
		<path id="path73" stroke-linejoin="round" d="m290.31 258.7c6.68-4.82 11.9-7.83 16.07-9.24 4.06-1.4 4.42 1.21 8.38 1.06 3.87-0.36 11.85-1.46 15.02-2.36 2.86-0.91 2-2.96 3.41-2.92 1.45-0.1 3.36 1.01 5.52 2.92v0c2.16 4.87 3.92 8.28 5.83 10.24 1.75 1.81 3.41 2.16 4.97 1.05v0c-1.01 1.01-2.06 2.31-3.17 3.72-1.1 1.4-2.46 2.91-3.66 4.72v0c-6.33 0.25-11.35 0.75-15.26 1.3-3.92 0.36-6.48 1.06-8.44 2.11-2.26 1.01-3.62 2.56-4.47 4.47v0c-1.45-2.26-3.11-3.77-4.97-4.72-2.01-0.9-4.12-1.05-6.32-1.05-2.32-0.25-4.62-0.71-7.14 0-2.71 0.7-5.97 3.01-7.88 4.21-1.86 1.16-2.91 1.76-3.16 2.36v0l-5.52 0.51v0c1.55-5.78 3.16-10.1 5.02-13.16 1.81-3.06 3.66-4.87 5.77-5.22v0z" stroke-linecap="round" stroke-width=".036" fill="#fff"/>
		<path id="path75" stroke-linejoin="round" d="m341.87 250.26c0.76 0.71 2.06 1.51 3.72 2.62 1.61 1 3.77 2.3 6.27 3.71v0c-1.3 0.95-2.46 1.46-3.66 1.31-1.31-0.16-2.31-0.86-3.41-2.11-1.01-1.26-2.11-3.17-2.92-5.53v0z" stroke-linecap="round" stroke-width=".036" fill="#fff"/>
		<path id="path77" stroke-linejoin="round" d="m341.37 248.41c1.26-1.01 2.56-2.71 3.92-4.72 1.15-2.21 2.41-4.97 3.97-7.89 1.5-3.06 3.86-7.33 5.52-9.48 1.45-2.21 2.26-2.62 3.96-3.17 1.81-0.55 5.18-1.15 6.58-0.25 1.2 0.81 1.46 2.41 0.75 5.02v0l-3.91 2.06v0c-2.26-1.3-3.52-1.91-3.97-1.81-0.5 0-0.15 0.71 1.06 2.11v0c-1.91 1.71-3.12 3.02-3.42 3.92-0.4 0.95 0.1 1.6 1.31 1.35 1.15-0.55 4.26-3.51 6.07-4.21 1.61-0.81 3.11-0.1 4.72-0.81 1.66-1 3.47-4.11 5.02-4.47 1.26-0.3 3.17 1.41 3.41 2.62 0.06 1.05-0.75 2.76-1.85 3.96-1.21 1.16-2.76 2.06-4.47 2.91-1.81 0.66-4.02 0.86-5.27 1.56-1.36 0.55-1.81 0.5-2.11 2.36-0.4 1.81 0.05 6.53 0 8.94-0.15 2.26 0.15 3.86-1.06 5.02-1.45 1.1-3.91 1.55-7.38 1.55v0c-1.8-1.55-3.66-2.86-5.77-3.91-2.16-1.06-4.52-2.01-7.08-2.66v0z" stroke-linecap="round" stroke-width=".036" fill="#fff"/>
		<path id="path79" stroke-linejoin="round" d="m368.43 238.97l5.28 7.88v0c-1.81 2.56-3.37 3.97-4.47 4.22-1.11 0.15-1.96-0.75-2.36-2.91v0c-1.36-0.05-2.16-0.81-2.61-1.86-0.66-1.26-0.66-3.82 0-4.97 0.6-1.21 2.05-2.06 4.16-2.36v0z" stroke-linecap="round" stroke-width=".036" fill="#fff"/>
		<path id="path81" stroke-linejoin="round" d="m380.28 190.27c-4.27 1-8.23 2.41-12.1 4.21-3.92 1.86-7.38 3.92-10.79 6.58v0c0.5 4.02 1.45 7.68 2.66 10.8 1.25 3.11 2.76 5.67 4.72 7.88v0c2.06 0.8 3.46 1.91 4.21 2.91 0.66 1.11 0.66 2.11 0 3.41v0c2.11-1.45 3.82-2 5.53-1.85 1.6 0.2 3.46 1.55 4.21 2.91 0.66 1.15 0.71 2.91-0.24 4.72-1.16 1.7-3.12 3.86-6.08 6.07v0c1.46 3.92 2.96 6.98 4.72 9.74 1.76 2.41 3.21 3.52 5.52 6.03 2.11 2.51 4.57 5.57 7.38 9.18v0c4.22-3.06 8.34-5.42 12.35-7.07 3.97-1.76 7.69-2.82 11.35-3.17v0c-1.71-5.92-3.11-10.64-4.77-14.71-1.66-4.06-3.16-7.08-4.72-9.24v0c-6.02-0.8-10.24-2.1-13.41-3.91-3.11-1.86-4.51-3.32-5.02-6.88-0.6-3.72 0-8.48 1.61-14.71v0c-1.51-3.77-2.76-6.48-3.97-8.69-1.25-2.2-2.3-3.61-3.16-4.21v0z" stroke-linecap="round" stroke-width=".036" fill="#fff"/>
		<path id="path83" stroke-linejoin="round" d="m353.72 269.74c-5.27-0.5-9.84-0.5-15.26 0-5.57 0.46-14.56 1.66-17.07 2.87-2.56 1.05-3.61 2.76 2.06 3.96 5.67 1.06 22.89 2.31 31.33 2.61 8.23-0.05 15.71-0.65 18.17-1.8 2.36-1.26-0.55-3.77-3.71-5.03-3.42-1.35-10.4-2.15-15.52-2.61v0z" stroke-linecap="round" stroke-width=".036" fill="#fff"/>
		<path id="path85" stroke-linejoin="round" d="m317.67 277.63c-0.15 1.15 0.21 3.56 1.06 7.63 0.75 4.06 1.2 11.24 3.67 16.32 2.35 4.96 5.87 9.28 10.54 13.15v0c4.72 0.15 8.58 0.3 11.6 0.25 3.06-0.05 4.97-0.3 6.27-0.55v0c2.26-1.11 4.57-3.92 7.13-8.64 2.51-4.97 6.23-17.17 7.88-19.73 1.56-2.46 2.06 0.85 1.31 4.72-1.01 3.56-6.07 14.76-6.33 17.12-0.15 2.06 3.27-1.31 5.02-3.72 1.51-2.56 2.92-6.67 4.22-10.79 1.16-4.07 2.21-8.53 3.16-13.41v0c-7.32 1.46-14.4 2.06-21.03 2.36-6.98 0-13.06-0.5-18.98-1.3-5.88-0.8-10.85-2.01-15.52-3.41v0z" stroke-linecap="round" stroke-width=".036" fill="#fff"/>
		<path id="path87" stroke-linejoin="round" d="m279.52 285.91c-0.7 1.36-1.76 4.17-1.81 7.08-0.05 2.81 0.3 6.27 1.05 9.24 0.61 2.76 1.41 5.82 2.62 7.08 1.05 1 3.61 0.7 4.21-0.51 0.45-1.3-0.35-3.96-1.05-6.82-0.81-2.92-2.76-7.23-3.16-10.04-0.56-3.07 0.5-5.73 0.25-6.83-0.51-1.06-1.46-0.61-2.11 0.8v0z" stroke-linecap="round" stroke-width=".036" fill="#fff"/>
		<path id="path89" stroke-linejoin="round" d="m283.48 285.66c1.66-2.61 6.53-7.33 9.74-9.49 3.12-2.21 5.83-3.21 8.69-3.41 2.76-0.56 5.32 0.1 7.88 1.55 2.41 1.66 5.98 5.73 6.83 7.94 0.8 1.91-0.2 4.62-1.86 4.47-1.76-0.15-8.03-5.53-8.38-5.28-0.5 0.1 4.67 3.67 6.02 6.03 1.36 2.21 2.06 5.32 2.11 7.38-0.15 1.81-1.86 3.66-2.61 4.22-1 0.6-1.71 0.1-2.66-1.31-1.06-1.71-2.86-8.38-3.11-8.43s1.1 5.22 1.55 7.88c0.36 2.56 0.71 5.02 0.51 6.58-0.46 1.3-1.31 2.1-2.36 1.05-1.36-1.46-3.47-7.73-4.17-8.38-0.7-0.56 0.7 3.31 0.75 5.22 0 1.76-0.25 4.67-0.75 5.82-0.8 1.06-2.21 2.06-3.46 0.5-1.46-1.8-3.67-9.64-4.47-10.54-0.86-0.85-0.31 3.31-0.51 4.77-0.4 1.21-0.65 2.01-1.3 2.61-0.76 0.45-1.91 1.51-2.91 0.25-1.26-1.45-2.46-5.77-3.42-8.13-0.95-2.36-1.9-4.32-2.11-6.08-0.4-1.91-1.75-2.81 0-5.22v0z" stroke-linecap="round" stroke-width=".036" fill="#fff"/>
		<path id="path91" stroke-linejoin="round" d="m46.458 350.48c1.858-0.81 4.117-1.61 6.578-2.62 2.51-1 5.02-2.05 8.133-3.16v0c0.251 1.21 0.251 2.16 0.553 3.42 0.049 1.2 0.401 2.16 0.502 3.41v0l-14.711 11.85v0c-0.853-2.21-1.456-4.47-1.606-6.58-0.202-2.31 0.05-4.16 0.551-6.32v0z" stroke-linecap="round" stroke-width=".036" fill="#fff"/>
		<path id="path93" stroke-linejoin="round" d="m56.701 383.66c-0.302 1.51 0.402 3.07 2.108 5.22 1.707 1.96 5.975 5.88 8.184 7.14 2.058 1.2 3.614 1.35 4.468 0.24v0l11.798-14.2v0c-1.857-0.61-3.564-1.51-5.522-2.91-1.958-1.51-3.967-3.17-6.025-5.53v0c-4.97 3.32-9.99 6.68-15.011 10.04v0z" stroke-linecap="round" stroke-width=".036" fill="#fff"/>
		<path id="path95" stroke-linejoin="round" d="m65.135 353.39c1.104 4.07 2.259 7.48 3.665 10.24 1.305 2.76 2.711 4.72 4.217 6.07v0l19.48-13.7v0c-2.059-2.56-3.766-4.82-4.72-7.33-1.154-2.51-1.556-4.97-1.606-7.38v0c-6.978 4.01-14.007 8.03-21.036 12.1v0z" stroke-linecap="round" stroke-width=".036" fill="#fff"/>
		<path id="path97" stroke-linejoin="round" d="m96.414 354.94c0.2 1.66 0.904 3.37 2.108 5.53 1.206 2.11 2.808 4.27 5.018 6.88v0l18.93-15.27v0c-2.01-2.61-3.67-4.62-4.97-6.57-1.4-2.01-2.46-3.42-3.16-4.77v0c-5.98 4.72-11.95 9.44-17.926 14.2v0z" stroke-linecap="round" stroke-width=".036" fill="#fff"/>
		<path id="path99" stroke-linejoin="round" d="m127.74 352.58c0.25 0.36 0.71 0.91 1.56 1.86 0.7 0.81 1.76 2.01 3.16 3.42v0c3.97-2.46 7.38-4.02 10.8-5.28 3.31-1.25 6.22-1.8 8.93-1.85v0c-2.71-1.76-4.67-3.32-6.27-4.47-1.61-1.31-2.66-2.26-3.16-2.86v0c-4.98 3.06-10 6.12-15.02 9.18v0z" stroke-linecap="round" stroke-width=".036" fill="#fff"/>
		<path id="path101" stroke-linejoin="round" d="m109.07 326.03c0.55 2.1 1.55 3.96 2.61 5.77 1 1.76 2.46 3.11 3.96 4.47v0l13.96-10.8v0c-1.86-0.45-3.51-1.3-4.77-2.35-1.3-1.16-2.41-2.72-3.11-4.47v0c-4.22 2.46-8.44 4.91-12.65 7.38v0z" stroke-linecap="round" stroke-width=".036" fill="#fff"/>
		<path id="path103" stroke-linejoin="round" d="m134.82 328.13c2.66 3.22 4.57 5.58 6.33 7.63 1.55 1.86 2.76 3.17 3.41 3.92v0c1.56-0.85 3.52-1.8 6.08-2.86 2.51-1.2 5.42-2.46 8.93-3.97v0c-2.81-2.1-5.02-3.96-6.82-5.77-1.86-1.86-2.97-3.61-3.72-5.27v0c-4.72 2.11-9.44 4.22-14.21 6.32v0z" stroke-linecap="round" stroke-width=".036" fill="#fff"/>
		<path id="path105" stroke-linejoin="round" d="m273.24 364.94c-0.45 2.1-1.05 4.11-2.36 6.57-1.3 2.26-2.91 4.72-5.02 7.38v0c-1-0.3-2.41-1-4.22-2.11-1.96-1.2-4.31-2.71-7.08-4.72v0c0.36-0.75 0.96-2.2 1.81-3.96 0.81-1.86 1.86-4.22 3.17-7.08v0c4.56 1.3 9.13 2.61 13.7 3.92v0z" stroke-linecap="round" stroke-width=".036" fill="#fff"/>
		<path id="path107" stroke-linejoin="round" d="m280.07 344.15c1.1-1.45 1.56-3.01 1.56-4.47-0.2-1.6-0.11-4.01-1.81-4.72-1.81-0.7-5.98 0.15-8.44 0.25-2.61-0.1-4.62-0.2-6.57-0.5v0l-0.81 7.63v0c5.32 0.61 10.7 1.21 16.07 1.81v0z" stroke-linecap="round" stroke-width=".036" fill="#fff"/>
		<path id="path109" stroke-linejoin="round" d="m261.14 343.4c0 2.66 0 5.07-0.55 7.63-0.6 2.41-1.21 4.77-2.36 7.08v0l-17.12-5.52v0c1.31-1.56 2.21-3.12 2.91-5.28 0.6-2.1 0.81-4.61 0.81-7.33v0c5.42 1.11 10.84 2.26 16.31 3.42v0z" stroke-linecap="round" stroke-width=".036" fill="#fff"/>
		<path id="path111" stroke-linejoin="round" d="m242.72 335.76c0.65 0 1.15-0.7 1.3-2.1 0.2-1.56 0.05-3.57-0.25-6.58v0c-1.56-0.2-3.46-0.25-5.52-0.55-2.26-0.3-5.47-0.65-7.13-1.06-1.66-0.5-2.61-1.1-2.86-1.8v0l-2.41 8.13v0c3.51 1.15 6.68 2.31 9.49 2.91s5.27 0.96 7.38 1.05v0z" stroke-linecap="round" stroke-width=".036" fill="#fff"/>
		<path id="path113" stroke-linejoin="round" d="m237.7 355.75c-0.51 1.86-1.11 3.41-1.81 4.47-0.86 1.05-1.56 1.75-2.66 2.1v0l-14.46-4.96v0c1.1-0.76 2.21-1.56 2.91-2.42 0.65-0.9 1.3-1.85 1.56-2.86v0c4.82 1.21 9.64 2.41 14.46 3.67v0z" stroke-linecap="round" stroke-width=".036" fill="#fff"/>
		<path id="path115" stroke-linejoin="round" d="m177.75 310.76c1.81-1.15 4.12-2.06 7.33-2.91 3.21-0.9 8.08-1.81 11.35-2.11 3.16-0.5 5.27-0.4 7.07-0.25v0c-1.7 2.26-3.56 4.47-6.32 6.83-2.66 2.36-5.98 4.67-9.74 7.13v0c-3.21-2.86-6.43-5.77-9.69-8.69v0z" stroke-linecap="round" stroke-width=".036" fill="#fff"/>
		<path id="path117" stroke-linejoin="round" d="m172.23 336.57c1.1-0.55 2.71-1.51 5.22-2.66 2.46-1.31 5.47-2.81 9.24-4.72v0c1.8 0.9 3.56 1.86 5.27 2.86 1.7 0.85 3.36 1.81 4.97 2.66v0c-2.26 3.17-4.12 5.27-5.78 5.77-1.8 0.31-3.46-2.81-4.21-2.36-0.81 0.56 0.3 4.67-0.56 5.78-0.9 1-2.4 1.71-4.72 0.55-2.36-1.3-5.57-3.87-9.43-7.88v0z" stroke-linecap="round" stroke-width=".036" fill="#fff"/>
		<path id="path119" stroke-linejoin="round" d="m225.35 336.57c-0.76 2.06-1.61 3.91-2.36 5.77-0.86 1.76-1.81 3.42-2.67 4.97v0c-6.27-2.76-9.89-4.61-11.04-5.77-1.2-1.15 3.66 0.1 3.96-1.06 0.16-1.45-3.01-5.06-2.91-6.57 0.05-1.51 0.81-2.66 3.42-2.11 2.46 0.35 6.32 2.01 11.6 4.77v0z" stroke-linecap="round" stroke-width=".036" fill="#fff"/>
		<path id="path121" stroke-linejoin="round" d="m131.41 329.19c-1.01 0-2.51 0.85-4.72 2.36-2.26 1.4-5.07 3.66-8.44 6.57v0c0.31 2.46 1.01 4.57 2.11 6.33 1.01 1.66 2.41 2.96 4.22 3.92v0l15.26-7.33v0c-2.16-2.11-3.91-4.07-5.27-6.08-1.45-2-2.51-3.86-3.16-5.77v0z" stroke-linecap="round" stroke-width=".036" fill="#fff"/>
		<path id="path123" stroke-linejoin="round" d="m89.586 341.04c-0.05 1.91 0.301 3.56 1.054 5.52 0.652 1.91 1.708 3.56 3.163 5.52v0l18.177-13.7v0c-0.6-1.36-1.41-2.71-2.41-4.47-1.11-1.81-2.41-3.67-3.92-5.78v0c-5.32 4.27-10.692 8.59-16.064 12.91v0z" stroke-linecap="round" stroke-width=".036" fill="#fff"/>
		<path id="path125" stroke-linejoin="round" d="m64.332 343.65c-0.201 1.35-0.201 2.51 0 3.66 0.151 1.11 0.352 2.01 0.804 2.91v0l21.288-13.15-1.807-2.11v0c-4.519 2.76-8.133 4.87-11.598 6.33-3.365 1.35-6.327 2.21-8.687 2.36v0z" stroke-linecap="round" stroke-width=".036" fill="#fff"/>
		<path id="path127" stroke-linejoin="round" d="m75.93 372.32c0 0.8 0.853 1.85 2.359 3.16 1.406 1.3 3.665 2.66 6.577 4.47v0l13.656-10.8v0c-1.255-1.3-2.611-2.46-3.665-4.21-1.155-1.71-2.209-3.57-3.163-5.78v0c-5.221 4.37-10.493 8.74-15.764 13.16v0z" stroke-linecap="round" stroke-width=".036" fill="#fff"/>
		<path id="path129" stroke-linejoin="round" d="m49.621 365.99l12.351-9.44v0c0.954 2.76 2.159 5.12 3.415 7.63 1.205 2.41 2.459 4.62 3.966 6.83v0l-13.957 9.49v0c-1.908-2.66-3.314-5.27-4.217-7.63-0.905-2.41-1.608-4.77-1.558-6.88v0z" stroke-linecap="round" stroke-width=".036" fill="#fff"/>
		<path id="path131" stroke-linejoin="round" d="m106.71 369.15l17.07-12.85 5.02 3.41v0c-3.12 4.42-5.68 7.38-7.88 9.44-2.26 1.81-3.27 2.06-5.53 2.11-2.46-0.05-5.22-0.75-8.68-2.11v0z" stroke-linecap="round" stroke-width=".036" fill="#fff"/>
		<path id="path133" stroke-linejoin="round" d="m147.22 342.84l13.41-5.52v0c-0.15 1.81-0.5 3.62-1.06 5.02-0.75 1.36-1.75 2.96-2.61 3.67-1 0.6-1.8-0.4-2.41 0.25-0.65 0.55-0.85 1.6-1 3.16v0c-2.11-2.16-4.22-4.37-6.33-6.58v0z" stroke-linecap="round" stroke-width=".036" fill="#fff"/>
		<path id="path135" stroke-linejoin="round" d="m154.3 321.56c2.66-1.46 5.58-2.86 8.94-4.22 3.36-1.46 6.98-2.86 11.05-4.22v0c0.4 1.51 1.3 3.11 2.91 5.02 1.6 1.81 3.51 3.82 6.32 6.03v0l-16.31 7.13v0c-3.02-0.96-5.43-2.06-7.64-3.72-2.15-1.66-3.91-3.66-5.27-6.02v0z" stroke-linecap="round" stroke-width=".036" fill="#fff"/>
		<path id="path137" stroke-linejoin="round" d="m247.99 328.94c0.9-0.05 2.21 0.3 3.91 1.05 1.71 0.71 4.32 2.26 6.08 3.11 1.66 0.71 2.81 1.06 3.66 1.06v0l-0.5 6.07-14.21-3.96v0c0.65-0.71 1.16-1.66 1.31-2.86 0.2-1.21 0.05-2.77-0.25-4.47v0z" stroke-linecap="round" stroke-width=".036" fill="#fff"/>
		<path id="path139" stroke-linejoin="round" d="m264.81 344.7c0.1 0.2 0 1.36-0.51 3.67-0.55 2.16-1.35 5.47-2.4 9.74v0l11.84 3.16v0c0.86-1.65 1.46-3.51 2.36-5.77 0.86-2.36 1.46-4.92 2.36-7.88v0c-4.52-0.96-9.08-1.91-13.65-2.92v0z" stroke-linecap="round" stroke-width=".036" fill="#fff"/>
		<path id="path141" stroke-linejoin="round" d="m256.12 360.77c-0.8 1.96-1.35 3.76-1.86 5.22-0.55 1.46-1.05 2.76-1.3 3.72v0c-1.1-0.76-2.51-1.71-4.97-2.67-2.41-1-5.43-2.2-9.24-3.41v0c0.75-0.6 1.51-1.31 1.86-2.11 0.3-0.95 0.6-2 0.5-3.16v0c4.97 0.8 9.99 1.61 15.01 2.41v0z" stroke-linecap="round" stroke-width=".036" fill="#fff"/>
		<path id="path143" stroke-linejoin="round" d="m229.31 338.12c-0.3 0.16 0.65 0.36 2.86 0.81 2.16 0.4 5.43 0.85 9.99 1.55v0c-1 3.62-1.96 6.28-2.86 8.19-0.9 1.81-2.06 2.76-2.91 2.86v0l-11.04-3.16v0c1.55-1.36 2.76-2.71 3.41-4.47 0.6-1.81 0.85-3.67 0.55-5.78v0z" stroke-linecap="round" stroke-width=".036" fill="#fff"/>
		<path id="path145" stroke-linejoin="round" d="m211.39 346.56c-1.96-0.9-2.56-0.8-2.36 0.5 0.15 1.21 2.76 5.58 3.97 7.13 1.05 1.46 2 2.06 2.86 1.81v0l3.46-4.47v0c-2.61-1.66-5.27-3.31-7.93-4.97v0z" stroke-linecap="round" stroke-width=".036" fill="#fff"/>
		<path id="path147" stroke-linejoin="round" d="m224.29 323.42c-2.56-0.81-4.57-0.86-6.02-0.56-1.51 0.3-2.21 1.81-2.91 2.61-0.91 0.76-1.61 1.31-2.12 1.86v0c1.46 1.26 2.82 2.21 4.47 2.66 1.56 0.45 3.17 0.6 5.03 0.25v0c0.5-2.26 1-4.52 1.55-6.82v0z" stroke-linecap="round" stroke-width=".036" fill="#fff"/>
		<path id="path149" stroke-linejoin="round" d="m191.96 325.47l6.82 4.22v0c1.06-1.66 1.86-3.71 2.62-5.77 0.65-2.11 1.25-4.62 1.6-7.13v0c-1.96 1.81-3.61 3.21-5.52 4.77-1.96 1.4-3.62 2.71-5.52 3.91v0z" stroke-linecap="round" stroke-width=".036" fill="#fff"/>
		<path id="path151" stroke-linejoin="round" d="m129.6 318.65c0.2 0.95 0.45 1.9 1.31 2.66 0.7 0.75 1.75 1.45 3.16 2.11v0l12.85-4.78-1.8-3.16v0c-2.01 0.75-4.22 1.31-6.83 1.86-2.71 0.5-5.43 1-8.69 1.31v0z" stroke-linecap="round" stroke-width=".036" fill="#fff"/>
		<path id="path153" stroke-linejoin="round" d="m283.48 348.67c1.16 0.65 1.61 2.21 1.56 4.47-0.15 2.36-1 5.17-2.36 9.18v0c0.65 0 1.56 0.26 2.91 0.56 1.41 0.25 2.81 0.75 4.97 1.3v0c1.96-2 3.12-4.01 3.47-6.57s-0.1-5.37-1.36-8.44v0c-3.06-0.15-6.12-0.3-9.19-0.5v0z" stroke-linecap="round" stroke-width=".036" fill="#fff"/>
		<path id="path155" stroke-linejoin="round" d="m302.41 349.42c0.75 2.31 0.91 5.02 0.25 7.94-0.8 2.91-3.26 7.68-3.91 9.43-0.71 1.56-0.71 1.56 0 0v0l2.61 3.67v0c3.31-3.47 5.67-6.58 6.88-8.94 0.95-2.46 0.65-3.41 0.25-5.77-0.36-2.66-1.06-5.47-2.11-9.19v0c-1.31 0.95-2.61 1.91-3.97 2.86v0z" stroke-linecap="round" stroke-width=".036" fill="#fff"/>
		<path id="path157" stroke-linejoin="round" d="m312.4 343.4c1.81 3.36 3.42 5.92 5.02 7.88 1.51 1.96 2.92 3.11 4.22 3.66v0l3.67-4.21v0c-1.76-2.01-3.27-3.72-4.72-5.52-1.51-1.76-2.77-3.42-3.97-4.98v0c-1.4 1.06-2.81 2.11-4.22 3.17v0z" stroke-linecap="round" stroke-width=".036" fill="#fff"/>
		<path id="path159" stroke-linejoin="round" d="m327.16 334.16l6.33 7.63v0c2.06-1.86 3.51-3.87 4.17-6.57 0.65-2.82 0.65-7.44 0-9.19-0.81-1.81-2.82-1.56-3.92-0.81-1.1 0.76-1.31 3.62-2.36 5.28-1.15 1.5-2.56 2.66-4.22 3.66v0z" stroke-linecap="round" stroke-width=".036" fill="#fff"/>
		<path id="path161" stroke-linejoin="round" d="m316.37 367.85c-1.76-0.2-3.37 0.15-5.02 1.05-1.66 0.86-3.17 2.26-4.72 4.22v0c0.95 2.31 2.16 3.87 3.41 4.47 1.31 0.45 2.56 0.25 3.97-0.81 1.25-1.2 2.91-4.01 3.41-5.52 0.35-1.45 0-2.66-1.05-3.41v0z" stroke-linecap="round" stroke-width=".036" fill="#fff"/>
		<path id="path163" stroke-linejoin="round" d="m304.77 369.71c2.16-1.86 3.62-3.72 4.77-5.78 0.96-2.21 1.61-3.56 1.56-6.57-0.15-3.07-1.01-6.58-2.36-11.1v0l2.36-2.11v0c0.35 2.86 1.25 5.52 2.91 8.19 1.66 2.56 3.87 5.02 6.83 7.38v0l-1.56 5.22v0c-3.41 0-5.77 0.35-7.63 1.05-1.76 0.65-2.36 1.61-3.16 2.66-1.06 0.91-1.81 1.86-2.66 2.86v0c-0.36-0.6-0.71-1.2-1.06-1.8v0z" stroke-linecap="round" stroke-width=".036" fill="#fff"/>
		<path id="path165" stroke-linejoin="round" d="m318.23 339.68c0.8-0.45 1.85-1.15 3.16-1.56 1.31-0.45 2.81-1.15 4.72-1.55v0l5.77 7.58-4.46 3.97v0c-2.26-1.91-3.92-3.57-5.53-4.98-1.45-1.4-2.86-2.56-3.66-3.46v0z" stroke-linecap="round" stroke-width=".036" fill="#fff"/>
		<path id="path167" stroke-linejoin="round" d="m300.05 349.42c1.16 1.31 1.51 2.96 1.06 5.52-0.51 2.46-1.76 5.48-3.97 9.24v0l-2.86-0.8v0c1.2-2.86 1.76-5.68 1.86-7.88 0.05-2.26-0.56-4.47-1.61-6.08v0h5.52v0z" stroke-linecap="round" stroke-width=".036" fill="#fff"/>
		<path id="path169" stroke-linejoin="round" d="m14.075 432.16c-0.653-1.7 3.363-2.51 6.075-3.16 2.761-0.85 6.727-1.96 9.991-1.56 3.162 0.3 7.079 2.51 8.435 3.92 1.255 1.3 0.652 3.26-1.606 4.52-2.661 1.15-9.238 3.46-13.154 2.86-3.967-0.7-9.088-5.02-9.741-6.58v0z" stroke-linecap="round" stroke-width=".036" fill="#fff"/>
		<path id="path171" stroke-linejoin="round" d="m8.854 419.81c2.309-1.85 5.523-3.06 9.439-3.41 3.966-0.45 8.635-0.25 14.208 0.8v-6.32c-4.268-1.46-8.635-1.71-12.903-1.31-4.418 0.55-8.736 1.76-13.154 4.17v0c0.803 2.01 1.606 4.01 2.41 6.07v0z" stroke-linecap="round" stroke-width=".036" fill="#fff"/>
		<path id="path173" stroke-linejoin="round" d="m2.779 399.83c3.665 0 6.024-1.05 7.631-3.71 1.556-2.67 1.808-6.53 1.305-11.8v0c-2.811 0.4-4.92 1.25-6.325 2.36-1.406 1.1-2.059 2.2-2.36 4.46-0.402 2.11-0.553 5.08-0.251 8.69v0z" stroke-linecap="round" stroke-width=".036" fill="#fff"/>
		<path id="path175" stroke-linejoin="round" d="m19.598 383.26c0.05 2.61 0.954 5.17 2.912 7.88 1.958 2.77 4.719 5.22 8.686 8.14v0l7.079-4.72v0c-3.163-1.71-5.624-3.57-7.581-5.78-2.109-2.36-3.313-4.56-4.218-7.38v0c-2.259 0.61-4.569 1.21-6.878 1.86v0z" stroke-linecap="round" stroke-width=".036" fill="#fff"/>
		<path id="path177" stroke-linejoin="round" d="m38.024 373.77c0 2.91 0.753 5.27 1.857 7.63 1.104 2.26 2.761 4.12 4.971 5.78v0l5.573-3.42v0c-1.406-2.31-2.561-4.67-3.464-7.08-0.954-2.56-1.658-4.97-2.109-7.63v0c-2.26 1.56-4.519 3.12-6.828 4.72v0z" stroke-linecap="round" stroke-width=".036" fill="#fff"/>
		<path id="path179" stroke-linejoin="round" d="m35.664 375.08c0.201 2.41 0.904 4.72 2.108 7.13 1.205 2.31 2.812 4.67 5.021 7.08v0l-2.662 2.91v0c-3.313-1.56-5.924-3.32-7.631-5.27-1.807-2.06-2.711-4.12-2.912-6.58v0c2.009-1.76 4.017-3.52 6.076-5.27v0z" stroke-linecap="round" stroke-width=".036" fill="#fff"/>
		<path id="path181" stroke-linejoin="round" d="m13.573 384.32c0.101 2.36 0.101 4.87 0 7.33-0.201 2.51 0.704 5.57-0.803 7.63-1.557 1.8-4.72 3.11-8.937 3.71v0c-0.603 2.36-0.854 4.42-0.552 5.78 0.201 1.3 0.753 2.31 1.857 2.61v0c4.418-2.21 8.887-3.62 13.405-4.22 4.469-0.7 8.887-0.6 13.456 0.3v0l-0.552-5.27v0c-2.511-1.46-4.971-3.06-6.828-5.02-2.009-2.06-3.816-4.32-5.021-6.58-1.356-2.31-1.958-4.67-2.36-7.08v0c-1.205 0.25-2.409 0.51-3.665 0.81v0z" stroke-linecap="round" stroke-width=".036" fill="#fff"/>
		<path id="path183" stroke-linejoin="round" d="m10.159 422.42c2.209-1.9 5.121-3.06 8.936-3.66 3.716-0.61 8.334-0.45 13.656 0.25v0l1.055 6.33v0c-4.418-0.31-8.284-0.41-11.799 0.24-3.565 0.41-6.577 1.56-9.238 2.92v0c-0.853-2.01-1.706-4.02-2.61-6.08v0z" stroke-linecap="round" stroke-width=".036" fill="#fff"/>
		<path id="path185" stroke-linejoin="round" stroke-width=".036" stroke-linecap="round" d="m50.074 368.65c1.556-1 3.212-2.06 4.77-2.96 1.556-1.01 4.167-2.76 4.518-2.76 0.201 0-1.757 1.35-2.962 2.51-1.456 1.1-5.472 3.86-4.518 3.66 0.904-0.6 9.037-5.57 10.443-6.17 1.255-0.55-0.803 1.2-2.51 2.76-1.908 1.31-6.678 4.62-7.933 5.87-1.306 1.21-1.155 1.81 0.452 1.41 1.557-0.71 7.331-4.17 8.636-4.77 1.104-0.55-0.653 0.55-1.808 1.56-1.305 1.05-4.87 3.01-5.673 4.11-1.004 0.86-1.104 1.76 0.653 1.36 1.808-0.71 8.886-4.42 9.791-4.57 0.552-0.1-3.666 2.81-5.473 4.12-1.757 1.15-3.565 2.2-5.221 3.16v0c-1.607-0.1-2.662-1-3.163-2.51-0.555-1.71-0.555-3.72-0.002-6.78v0z"/>
		<path id="path187" stroke-linejoin="round" stroke-width=".036" stroke-linecap="round" d="m77.335 370.46c1.556-1.01 3.213-2.06 4.77-2.96 1.557-1.11 4.167-2.66 4.519-2.72 0.201 0.06-1.758 1.26-2.962 2.46-1.456 1.11-5.473 3.87-4.519 3.67 0.904-0.4 9.038-5.67 10.443-6.13 1.255-0.65-0.803 1.16-2.511 2.72-1.908 1.5-6.677 4.52-7.933 5.92-1.305 1.16-1.155 1.86 0.452 1.36 1.556-0.71 7.33-4.17 8.636-4.77 1.104-0.56-0.653 0.55-1.808 1.55-1.305 1.06-4.87 3.02-5.674 4.12-1.003 0.85-1.104 1.76 0.653 1.35 1.807-0.55 8.887-4.56 9.79-4.51 0.552-0.06-3.665 2.66-5.472 4.06-1.757 1.16-3.565 2.21-5.222 3.16v0c-1.607-0.15-2.661-0.9-3.163-2.46-0.551-1.6-0.551-3.81 0.001-6.82v0z"/>
		<path id="path189" stroke-linejoin="round" stroke-width=".036" stroke-linecap="round" d="m89.586 341.59c1.556-1.01 3.213-2.06 4.77-2.96 1.556-1.01 4.167-2.81 4.569-2.71 0.201 0-1.757 1.35-2.962 2.51-1.456 1.1-5.472 3.86-4.519 3.61 0.904-0.4 9.036-5.67 10.446-6.12 1.25-0.66-0.81 1.15-2.513 2.71-1.908 1.5-6.678 4.52-7.933 5.92-1.305 1.16-1.154 1.86 0.452 1.36 1.557-0.71 7.33-4.17 8.634-4.77 0.95-0.56-0.5 0.5-1.857 1.6-1.305 0.96-4.87 2.96-5.673 4.07-0.904 0.85-1.054 1.76 0.703 1.35 1.707-0.55 8.887-4.56 9.737-4.51 0.66-0.05-3.662 2.66-5.419 4.06-1.757 1.11-3.565 2.36-5.222 3.21v0c-1.556-0.1-2.761-1-3.213-2.5-0.552-1.61-0.552-3.82 0-6.83v0z"/>
		<path id="path191" stroke-linejoin="round" stroke-width=".036" stroke-linecap="round" d="m106.4 364.33c1.56-1 3.22-2.06 4.78-2.96 1.55-1 4.16-2.76 4.56-2.76 0.2 0-1.75 1.35-2.96 2.51-1.4 1.1-5.57 3.86-4.57 3.66 1.01-0.6 9.09-5.57 10.5-6.17 1.25-0.55-0.81 1.2-2.51 2.76-1.86 1.31-6.78 4.62-7.99 5.87-1.2 1.21-1.1 1.81 0.51 1.41 1.4-0.7 7.43-4.17 8.58-4.77 1.1-0.55-0.65 0.55-1.81 1.56-1.3 1.05-4.87 3.01-5.67 4.11-0.9 0.86-1.05 1.76 0.7 1.36 1.71-0.7 8.89-4.42 9.74-4.57 0.66-0.1-3.66 2.81-5.42 4.12-1.76 1.15-3.56 2.21-5.22 3.16v0c-1.56-0.1-2.76-1-3.21-2.51-0.56-1.71-0.56-3.71-0.01-6.78v0z"/>
		<path id="path193" stroke-linejoin="round" stroke-width=".036" stroke-linecap="round" d="m118.71 339.33c1.55-1 3.21-2.06 4.77-2.96 1.55-1.11 4.16-2.66 4.51-2.71 0.21 0.05-1.75 1.25-2.96 2.46-1.45 1.1-5.47 3.86-4.52 3.66 0.91-0.4 9.04-5.67 10.45-6.12 1.25-0.66-0.81 1.15-2.51 2.71-1.91 1.51-6.68 4.52-7.94 5.92-1.3 1.16-1.15 1.86 0.46 1.36 1.55-0.7 7.33-4.17 8.63-4.77 1.1-0.56-0.65 0.55-1.81 1.56-1.3 1.05-4.87 3.01-5.67 4.11-1 0.85-1.1 1.76 0.65 1.36 1.81-0.71 8.89-4.42 9.79-4.57 0.56-0.1-3.66 2.81-5.47 4.12-1.76 1.15-3.56 2.2-5.22 3.16v0c-1.61-0.15-2.66-0.9-3.16-2.46-0.56-1.61-0.56-3.82 0-6.83v0z"/>
		<path id="path195" stroke-linejoin="round" stroke-width=".036" stroke-linecap="round" d="m155.76 323.87c1.56-1.01 3.21-2.06 4.77-2.97 1.55-1.1 4.17-2.66 4.52-2.71 0.2 0.05-1.76 1.26-2.97 2.46-1.45 1.11-5.47 3.87-4.51 3.67 0.9-0.4 9.03-5.67 10.44-6.13 1.25-0.65-0.81 1.16-2.51 2.71-1.91 1.51-6.68 4.52-7.94 5.93-1.3 1.15-1.15 1.86 0.46 1.35 1.55-0.7 7.33-4.16 8.63-4.76 1.11-0.56-0.65 0.55-1.81 1.55-1.25 1.06-4.97 3.01-5.72 4.12-0.9 0.85-1.05 1.76 0.7 1.35 1.81-0.55 8.89-4.56 9.79-4.52 0.51-0.2-4.21 2.97-5.47 4.07-1.25 1-1.86 1.76-1.81 2.26v0c-4.57-2.96-7.38-4.87-8.43-6.33-1.05-1.4-0.5-2.15 1.86-2.05v0z"/>
		<path id="path197" stroke-linejoin="round" stroke-width=".036" stroke-linecap="round" d="m239.25 350.43c-1.96-0.71-3.61-1.11-5.37-1.76-1.91-0.65-4.72-1.61-4.97-1.71-0.2-0.25 2.16 0.35 3.81 0.65 1.71 0.35 6.38 1.51 5.68 1.16-1.06-0.65-10.1-3.37-11.4-4.07-1.35-0.65 1.36-0.4 3.67 0.15 2.26 0.45 7.73 2.06 9.64 2.31 1.65 0.1 2.1-0.5 0.75-1.25-1.61-0.81-8.03-3.07-9.19-3.52-1.1-0.6 0.65-0.1 2.36 0.35 1.51 0.26 5.52 1.66 6.83 1.71 1.3 0.1 1.96-0.5 0.6-1.4-1.55-1.01-9.34-4.12-9.79-4.52-0.6-0.51 4.77 1.35 6.63 1.5 1.86-0.05 3.21-0.45 4.27-1.4v0c0 6.02-0.2 9.79-0.81 11.89-0.65 1.96-1.55 1.86-2.71-0.09v0z"/>
		<path id="path199" stroke-linejoin="round" stroke-width=".036" stroke-linecap="round" d="m275.35 358.86c-1.86-0.7-3.56-1.1-5.32-1.76-1.86-0.65-4.82-1.6-5.02-1.7-0.1-0.25 2.01 0.35 3.81 0.65 1.66 0.25 6.48 1.45 5.73 1.1-1.16-0.6-10.14-3.36-11.45-4.01-1.25-0.66 1.4-0.41 3.72 0.15 2.26 0.35 7.73 2 9.64 2.26 1.65 0 2.1-0.41 0.75-1.21-1.61-0.75-7.98-3.16-9.24-3.56-1.2-0.5 0.75-0.05 2.41 0.4 1.56 0.25 5.37 1.66 6.78 1.7 1.3 0.11 1.96-0.5 0.6-1.4-1.6-1.1-9.24-4.12-9.74-4.57-0.6-0.55 4.97 1.26 6.63 1.56 1.61 0.2 2.51 0.25 2.91-0.05v0c0.7 5.22 0.95 8.78 0.55 10.49s-1.25 1.76-2.76-0.05v0z"/>
		<path id="path201" stroke-linejoin="round" stroke-width=".036" stroke-linecap="round" d="m253.26 368.45c-1.91-0.7-3.36-1.45-5.12-2.06-1.81-0.85-4.72-1.71-4.87-1.96s2.01 0.45 3.77 0.96c1.45 0.5 6.47 1.85 5.57 1.55-1.06-0.6-9.69-4.01-11-4.62-1.3-0.65 1.46-0.2 3.67 0.56 2.21 0.45 7.53 2.61 9.39 2.96 1.7 0.25 2.06-0.2 0.85-0.95-1.41-0.81-7.78-3.47-8.84-3.92-1-0.5 0.61-0.05 2.31 0.55 1.51 0.4 5.27 1.96 6.63 2.16 1.36 0.15 1.86-0.2 0.7-1.05-1.7-1.21-8.68-4.32-9.28-4.87-0.51-0.56 4.82 1.6 6.47 2 1.46 0.46 2.61 0.36 2.91 0.26v0c0.2 4.46 0.05 7.33-0.45 8.78-0.55 1.36-1.45 1.31-2.71-0.35v0z"/>
		<path id="path203" stroke-linejoin="round" stroke-width=".036" stroke-linecap="round" d="m260.39 339.93c-1.96-0.4-3.62-1.05-5.37-1.4-1.86-0.55-4.82-1.26-5.02-1.36-0.1-0.15 2 0.15 3.81 0.5 1.66 0.25 6.48 1.06 5.73 0.86-1.16-0.4-10.15-2.77-11.45-3.22-1.26-0.6 1.4-0.25 3.71 0.11 2.26 0.35 7.74 1.45 9.64 1.75 1.66 0 2.11-0.4 0.76-1-1.61-0.75-7.99-2.41-9.24-2.81-1.1-0.46 0.65-0.1 2.36 0.25 1.5 0.2 5.52 1.3 6.83 1.35 1.3-0.05 1.95-0.45 0.6-1.2-1.71-0.96-9.24-3.22-9.84-3.67-0.45-0.55 4.87 1.01 6.68 1.21 1.6 0.1 2.51 0.2 2.91-0.1v0c0.8 4.42 0.95 7.28 0.65 8.78-0.4 1.41-1.25 1.46-2.76-0.05v0z"/>
		<path id="path205" stroke-linejoin="round" stroke-width=".036" stroke-linecap="round" d="m225.24 325.68c-4.77-0.41-7.18-0.61-7.23-0.21-0.1 0.21 2.16 1.01 6.78 2.01v0l0.45-1.8v0z"/>
		<path id="path207" stroke-linejoin="round" stroke-width=".036" stroke-linecap="round" d="m225.04 327.93c-4.87-0.4-7.23-0.6-7.28-0.2-0.1 0.35 2.11 0.91 6.83 2.06v0c0.15-0.6 0.3-1.2 0.45-1.86v0z"/>
		<path id="path209" stroke-linejoin="round" stroke-width=".036" stroke-linecap="round" d="m219.07 352.99c-4.22-2.56-6.18-3.62-6.43-3.37-0.15 0.2 1.41 1.81 5.22 4.82v0c0.41-0.45 0.81-0.95 1.21-1.45v0z"/>
		<path id="path211" stroke-linejoin="round" stroke-width=".036" stroke-linecap="round" d="m193.86 328.03c3.17-3.61 4.57-5.62 4.42-5.82-0.25-0.3-2.06 1.15-5.62 4.37v0c0.4 0.45 0.8 0.95 1.2 1.45v0z"/>
		<path id="path213" stroke-linejoin="round" stroke-width=".036" stroke-linecap="round" d="m193.86 330.29c3.17-3.61 4.57-5.62 4.42-5.82-0.25-0.3-2.06 1.15-5.62 4.37v0c0.4 0.45 0.8 0.95 1.2 1.45v0z"/>
		<path id="path215" stroke-linejoin="round" stroke-width=".036" stroke-linecap="round" d="m147.27 346.06c6.03-3.42 9.14-5.22 9.14-5.42-0.05-0.26-3.01 1.05-9.09 4.11v0c0 0.41 0 0.86-0.05 1.31v0z"/>
		<path id="path217" stroke-linejoin="round" stroke-width=".036" stroke-linecap="round" d="m148.43 347.42c6.02-3.42 9.13-5.23 9.13-5.43 0-0.3-3.11 1.16-9.13 4.17v1.26z"/>
		<path id="path219" stroke-linejoin="round" stroke-width=".036" stroke-linecap="round" d="m130 323.56c6.03-3.41 9.14-5.22 9.14-5.42-0.05-0.25-3.01 1.06-9.09 4.12v0c0 0.4 0 0.86-0.05 1.3v0z"/>
		<path id="path221" stroke-linejoin="round" stroke-width=".036" stroke-linecap="round" d="m62.977 349.67c6.024-3.41 9.137-5.22 9.137-5.42-0.05-0.3-3.012 1.15-9.087 4.17v0c-0.001 0.4-0.001 0.8-0.05 1.25v0z"/>
		<path id="path223" stroke-linejoin="round" stroke-width=".036" stroke-linecap="round" d="m62.977 348.32c6.024-3.42 9.137-5.22 9.137-5.42-0.05-0.31-3.012 1.15-9.087 4.16v0c-0.001 0.4-0.001 0.8-0.05 1.26v0z"/>
	<g id="g225">
		<path id="path227" stroke-width=".036" d="m156.06 250.27c0.15 2.97 2.26 4.22 7.08 3.97 4.67-0.35 6.78 0.2 20.84-5.72 13.95-6.18 43.88-20.74 62.45-30.13 18.48-9.59 30.38-15.86 47.9-26.15 17.52-10.4 42.77-25.86 55.83-35 12.75-9.09 15.46-13.2 20.33-19.53 4.52-6.53 8.13-14.36 7.53-19.03-0.7-4.87-2.21-10.04-11.5-9.28-9.53 0.7-24.19 5.27-44.73 13.7-4.77-6.68-10.09-15.76-15.96-27.461-5.98-12-14.01-29.521-19.48-42.676-5.58-13.204-10.55-26.811-13.76-34.994-3.21-8.134-3.27-10.293-5.77-13.255-2.66-3.012-3.22-5.472-10.2-4.468-7.18 0.904-16.46 2.761-32.33 10.192-16.11 7.381-45.74 23.346-62.91 34.14-17.12 10.744-29.57 20.585-39.46 30.124-10.14 9.439-17.97 19.581-20.38 26.158-2.413 6.28 3.66 8.64 6.22 11.95 2.41 3.21 4.47 3.26 8.89 7.53 4.32 4.17 10.14 10.14 17.27 17.72l-7.08 8.84 51.82 48.75c1.45 1.81 2.66 3.66 4.01 5.77 1.16 2.01 2.46 4.22 3.52 6.63-5.58 3.57-10.6 7.63-15.07 12.4-4.61 4.77-9.43 10.75-11.94 15.97-2.52 5.02-3.62 9.44-3.12 13.85z"/>
		<path id="path229" d="m172.02 42.369c-8.08 4.669-14.91 9.087-21.28 13.255-6.48 4.067-10.4 6.627-16.37 11.547-6.07 4.97-14.31 12.702-19.08 18.175-4.77 5.373-8.38 10.142-9.29 13.706-0.95 3.468-1.2 6.528 3.52 6.678 4.57-0.15 12.75-2.06 23.95-7.079 11.29-5.473 28.11-15.263 42.52-23.949 14.16-8.735 29.62-18.727 42.12-27.463 12.41-8.987 24.3-17.974 31.43-24.802 6.78-6.728 8.94-12.15 9.74-15.112 0.71-3.162-0.55-3.866-5.32-3.062-4.92 0.903-14.16 4.016-23.44 7.983-9.64 3.866-22.45 9.389-32.39 14.609-9.84 4.971-18.27 10.594-26.11 15.514z" stroke-width=".036" fill="#fff"/>
			<path id="path231" stroke-linejoin="round" d="m110.67 108.14c2.11 0.65 5.83 0 10.95-1.41 5.17-1.7 11.6-3.71 19.83-7.778 8.08-4.167 17.82-9.841 28.62-16.267 10.74-6.627 24.55-15.413 35.04-22.292 10.14-6.878 18.98-13.053 26.51-18.728 7.43-5.773 13.36-10.392 18.38-15.212 4.92-4.921 8.93-10.092 11.29-13.757 2.26-3.765 2.91-6.527 2.16-8.485v0c1.96 3.967 4.72 10.543 8.49 20.133 3.71 9.589 8.48 24.3 13.75 36.751 5.27 12.351 10.75 24.702 16.97 36.451 6.03 11.594 12.1 21.944 18.78 32.184v0c1.2 4.57 1.81 8.43 1.4 12-0.4 3.36-0.3 5.27-3.56 8.83-3.46 3.57-8.94 7.64-16.62 12.4v0c-8.94 3.17-17.12 6.98-25.1 11.65-8.08 4.62-17.42 11.8-22.6 15.92-5.27 4.01-8.03 6.43-8.48 7.78v0c-7.23 3.47-14.01 6.53-20.88 9.19-7.14 2.56-15.02 5.52-20.14 6.38-5.17 0.7-5.97 2.1-9.94-1.41-4.06-3.62-7.68-11-13.76-19.83-6.27-9.09-14.2-22.24-22.64-33.24-8.48-11-19.88-24.05-27.21-31.83s-12.75-11.25-16.27-14.46c-3.56-3.26-5.22-4.92-4.97-4.97v0z" stroke-linecap="round" stroke-width=".9978" fill="#fff"/>
		<g id="g233" stroke-width=".036">
			<path id="path235" d="m208.12 25.35c3.92-1.607 14.16-4.971 20.69-6.979 6.38-2.058 16.77-5.322 17.42-5.121 0.35 0.05-9.04 3.866-14.41 5.824-5.47 1.958-13.5 4.066-17.87 5.572-4.47 1.356-7.18 2.059-8.13 2.31-1.06 0.1-1.51-0.251 2.3-1.606z"/>
			<path id="path237" d="m196.28 33.935c3.91-1.606 14.15-4.971 20.68-6.979 6.38-2.059 16.77-5.322 17.42-5.121 0.35 0.05-9.03 3.866-14.41 5.824-5.47 1.958-13.5 4.067-17.87 5.573-4.47 1.305-7.18 2.158-8.13 2.359-1.06 0.151-1.51-0.402 2.31-1.656z"/>
			<path id="path239" d="m192.91 38.654c3.97-1.457 14.26-4.669 20.84-6.527 6.47-2.059 16.77-4.719 17.52-4.67 0.25 0.051-9.04 3.615-14.51 5.473-5.68 1.858-13.56 3.715-18.02 5.171-4.42 1.205-7.28 1.907-8.19 2.108-1.05 0.202-1.55-0.45 2.36-1.555z"/>
				<path id="path241" stroke-linejoin="round" stroke-linecap="round" d="m268.37 11.944c-2.31 3.515-4.37 6.477-6.37 8.887-2.21 2.259-4.22 3.313-5.63 5.271-1.4 1.908-0.55 3.916-2.11 6.025-1.6 1.958-4.01 2.761-7.43 5.673-3.76 2.812-10.99 8.836-14.15 11.297-3.22 2.159-1.66 0.652-4.62 2.46-3.17 2.008-10.8 6.376-13.41 8.836-2.76 2.209-4.11 4.719-2.51 4.268 1.56-0.753 8.23-5.874 11.7-7.782 3.31-1.908 4.06-0.653 8.48-3.565 4.37-3.112 12.45-10.442 17.68-14.459 5.17-4.218 9.33-7.833 12.7-9.891 2.96-2.059 4.52-1.405 6.02-2.51 1.56-1.206 2.56-2.913 3.22-4.921v0c-1.16-3.163-2.36-6.376-3.57-9.589v0z"/>
				<path id="path243" stroke-linejoin="round" stroke-linecap="round" d="m271.23 21.885c-2.31 3.615-4.37 6.376-6.37 8.836-2.16 2.259-4.32 3.313-5.68 5.271-1.4 1.908-0.55 3.916-2.1 6.024-1.61 1.958-4.02 2.762-7.44 5.674-3.76 2.811-10.99 8.836-14.15 11.296-3.27 2.16-1.56 0.653-4.57 2.46-3.06 2.008-10.9 6.376-13.46 8.836-2.81 2.209-4.01 4.72-2.46 4.268 1.46-0.753 8.19-5.874 11.65-7.782 3.16-1.958 4.12-0.552 8.48-3.515 4.37-3.062 12.45-10.543 17.68-14.509 5.12-4.217 9.44-7.833 12.75-9.891 2.96-2.059 4.52-1.406 6.02-2.511 1.46-1.205 2.51-2.912 3.17-4.92v0c-1.16-3.161-2.31-6.324-3.52-9.537v0z"/>
				<path id="path245" stroke-linejoin="round" stroke-linecap="round" d="m275.1 30.37c-2.31 3.615-4.37 6.376-6.38 8.836-2.21 2.259-4.22 3.313-5.62 5.271-1.36 1.908-0.65 3.916-2.16 6.024-1.6 1.958-4.02 2.762-7.43 5.674-3.81 2.811-10.84 8.836-14.11 11.296-3.21 2.209-1.65 0.503-4.62 2.46-3.16 1.958-10.79 6.477-13.4 8.887-2.76 2.059-4.12 4.82-2.51 4.217 1.56-0.753 8.23-5.874 11.7-7.782 3.31-1.958 4.06-0.552 8.48-3.515 4.37-3.062 12.45-10.543 17.67-14.509 5.18-4.217 9.34-7.833 12.71-9.89 2.96-2.059 4.52-1.406 6.02-2.511 1.46-1.205 2.51-2.912 3.16-4.92v0c-1.15-3.162-2.31-6.325-3.51-9.538v0z"/>
				<path id="path247" stroke-linejoin="round" stroke-linecap="round" d="m278.61 40.612c-2.35 3.615-4.26 6.377-6.32 8.836-2.16 2.209-4.32 3.464-5.67 5.322-1.41 1.758-0.56 4.017-2.12 5.975-1.6 1.807-4.01 2.861-7.42 5.673-3.77 2.812-11 8.836-14.16 11.297-3.27 2.159-1.56 0.603-4.57 2.51-3.06 2.008-10.9 6.376-13.46 8.837-2.81 2.058-4.01 4.819-2.46 4.217 1.46-0.753 8.19-5.875 11.65-7.782 3.16-1.958 4.12-0.552 8.48-3.515 4.37-3.063 12.46-10.543 17.68-14.51 5.12-4.217 9.44-7.832 12.75-9.89 3.01-2.108 4.42-1.306 5.97-2.46 1.41-1.406 2.67-2.811 3.22-4.971v0c-1.16-3.162-2.36-6.325-3.57-9.539v0z"/>
				<path id="path249" stroke-linejoin="round" stroke-linecap="round" d="m282.28 49.8c-2.16 3.364-4.27 6.276-6.13 8.535-2.15 2.209-4.11 3.213-5.47 5.121-1.26 1.857-0.65 3.866-2.06 5.824-1.46 1.707-3.91 2.811-7.18 5.472-3.46 2.711-10.79 8.535-13.65 10.895-3.02 2.059-1.71 0.603-4.42 2.41-3.01 1.858-10.45 6.327-13.01 8.536-2.71 2.108-3.76 4.517-2.36 4.117 1.56-0.6 7.84-5.825 11.25-7.532 3.21-1.857 3.87-0.552 8.19-3.414 4.26-3.113 12.04-10.042 17.12-14.008 4.86-4.117 9.13-7.431 12.25-9.54 3.06-1.958 4.16-1.405 5.82-2.41 1.35-1.305 2.56-2.761 3.06-4.77v0c-1.1-3.06-2.26-6.123-3.41-9.236v0z"/>
				<path id="path251" stroke-linejoin="round" stroke-linecap="round" d="m285.84 60.042c-2.31 3.363-4.16 6.275-6.17 8.534-2.16 2.209-4.12 3.214-5.47 5.122-1.31 1.858-0.56 3.866-2.01 5.824-1.46 1.808-3.92 2.661-7.18 5.473-3.47 2.811-10.8 8.535-13.66 10.944-3.01 2.109-1.65 0.503-4.47 2.36-3.06 1.861-10.34 6.321-12.95 8.531-2.66 2.11-3.92 4.52-2.41 4.12 1.46-0.6 7.93-5.82 11.3-7.53 3.21-1.86 3.86-0.55 8.18-3.42 4.32-3.108 11.95-10.036 17.07-14.003 4.82-4.117 9.24-7.431 12.3-9.539 2.86-1.958 4.27-1.406 5.77-2.41 1.56-1.305 2.41-2.761 3.12-4.77v0c-1.11-3.061-2.26-6.123-3.42-9.236v0z"/>
				<path id="path253" stroke-linejoin="round" stroke-linecap="round" d="m289.71 68.527c-2.16 3.364-4.27 6.276-6.13 8.535-2.15 2.209-4.11 3.214-5.47 5.122-1.25 1.858-0.65 3.866-2.06 5.824-1.6 1.708-4.52 3.264-7.18 5.473-2.81 2.209-6.77 5.974-8.98 7.779-2.26 1.66-1.61 0.5-4.42 2.36-3.01 1.86-10.45 6.33-13.01 8.54-2.71 2.11-3.76 4.52-2.35 4.11 1.55-0.6 7.83-5.82 11.24-7.53 3.11-1.9 4.77-1.1 8.23-3.41 3.47-2.51 8.04-7.482 12.36-10.846 4.06-3.515 9.13-7.531 12.3-9.539 2.96-1.958 4.31-1.406 5.82-2.41 1.36-1.306 2.56-2.761 3.06-4.77v0c-1.1-3.063-2.26-6.125-3.41-9.238v0z"/>
				<path id="path255" stroke-linejoin="round" stroke-linecap="round" d="m293.63 76.661c-2.31 3.363-4.17 6.276-6.18 8.535-2.16 2.209-4.12 3.213-5.47 5.122-1.31 1.857-0.56 3.866-2.01 5.824-1.61 1.707-4.52 3.264-7.18 5.478-2.81 2.2-6.78 5.97-8.99 7.78-2.41 1.65-1.5 0.5-4.47 2.36-3.06 1.85-10.34 6.32-12.95 8.53-2.66 2.11-3.92 4.52-2.41 4.12 1.46-0.61 7.93-5.83 11.3-7.53 3.16-1.91 4.67-1.11 8.18-3.42 3.41-2.51 8.19-7.48 12.4-10.84 4.07-3.517 9.14-7.533 12.3-9.541 2.87-1.958 4.27-1.406 5.78-2.41 1.55-1.306 2.41-2.762 3.11-4.77v0c-1.1-3.064-2.26-6.126-3.41-9.238v0z"/>
				<path id="path257" stroke-linejoin="round" stroke-linecap="round" d="m297.84 85.497c-2.16 3.364-4.26 6.276-6.12 8.535-2.16 2.209-4.12 3.213-5.47 5.121-1.26 1.857-0.66 3.867-2.06 5.827-1.61 1.7-4.52 3.26-7.18 5.47-2.82 2.21-6.78 5.97-8.99 7.78-2.26 1.66-1.61 0.5-4.42 2.36-3.01 1.86-10.44 6.33-13 8.54-2.71 2.11-3.77 4.51-2.36 4.11 1.56-0.6 7.83-5.82 11.24-7.53 3.12-1.91 4.78-1.1 8.24-3.41 3.46-2.51 8.03-7.48 12.35-10.85 4.07-3.51 9.14-7.53 12.3-9.54 2.96-1.954 4.32-1.4 5.82-2.406 1.36-1.305 2.57-2.761 3.07-4.77v0c-1.11-3.062-2.26-6.124-3.42-9.237v0z"/>
				<path id="path259" stroke-linejoin="round" stroke-linecap="round" d="m302.81 92.224c-2.31 3.364-4.16 6.276-6.17 8.536-2.16 2.21-4.12 3.21-5.48 5.12-1.3 1.86-0.55 3.87-2 5.82-1.51 1.86-5.33 3.62-7.18 5.48-2.06 1.8-3.07 3.51-4.77 5.12-1.91 1.35-2.77 1.2-5.88 3.21-3.31 2.01-10.34 6.28-12.95 8.54-2.66 2.11-3.92 4.51-2.41 4.11 1.45-0.6 7.93-5.82 11.3-7.53 3.16-1.85 5.12-1.45 8.18-3.41 2.86-2.21 5.93-5.93 9.59-9.04 3.61-3.11 9.14-7.58 12.3-9.54 2.96-1.96 4.32-1.4 5.82-2.41 1.36-1.3 2.56-2.76 3.07-4.77v0c-1.11-3.06-2.26-6.123-3.42-9.236v0z"/>
				<path id="path261" stroke-linejoin="round" stroke-linecap="round" d="m306.23 100.01c-2.01 3.21-3.92 5.72-5.73 7.93-1.95 2.11-3.91 3.01-5.12 4.82-1.2 1.71-0.55 3.56-1.9 5.37-1.56 1.81-4.88 3.31-6.68 5.12-1.86 1.81-2.81 3.22-4.42 4.77-1.61 1.11-2.71 1.21-5.47 3.02-3.17 1.8-9.59 5.87-12.1 7.93-2.66 1.91-3.47 4.27-2.21 3.81 1.35-0.6 7.43-5.37 10.49-6.98 2.91-1.75 4.82-1.25 7.63-3.16 2.66-1.96 5.57-5.67 8.94-8.43 3.46-3.02 8.43-7.03 11.45-8.94 2.66-2.06 4.01-1.05 5.42-2.21 1.35-1.2 2.31-2.56 2.86-4.47v0c-1.05-2.86-2.11-5.72-3.16-8.58v0z"/>
				<path id="path263" stroke-linejoin="round" stroke-linecap="round" d="m310.09 108.49c-2.15 3.21-3.86 5.73-5.72 7.93-1.96 2.11-3.92 3.02-5.07 4.82-1.21 1.71-0.55 3.57-1.91 5.38-1.55 1.8-4.87 3.31-6.68 5.12-1.85 1.81-2.81 3.21-4.41 4.77-1.61 1.1-2.72 1.2-5.48 3.01-3.16 1.81-9.59 5.88-12.1 7.93-2.61 1.91-3.56 4.27-2.26 3.82 1.36-0.6 7.38-5.37 10.55-6.98 2.91-1.76 4.82-1.25 7.63-3.16 2.66-1.96 5.57-5.68 8.94-8.44 3.46-3.01 8.43-7.03 11.44-8.93 2.66-2.06 4.02-1.06 5.42-2.21 1.36-1.21 2.32-2.57 2.87-4.47v0c-1.06-2.86-2.11-5.73-3.22-8.59v0z"/>
				<path id="path265" stroke-linejoin="round" stroke-linecap="round" d="m314.36 115.92c-2.01 3.22-3.92 5.73-5.72 7.94-1.96 2-3.92 3.01-5.12 4.76-1.21 1.71-0.56 3.52-1.91 5.43-1.56 1.75-4.87 3.46-6.68 5.12-1.86 1.81-2.81 3.21-4.42 4.77-1.61 1.1-2.71 1.2-5.47 3.01-3.16 1.81-9.59 5.88-12.1 7.93-2.66 1.91-3.46 4.27-2.21 3.82 1.35-0.6 7.43-5.37 10.49-6.98 2.92-1.76 4.82-1.25 7.63-3.16 2.67-1.96 5.58-5.68 8.94-8.44 3.47-3.01 8.44-7.03 11.45-8.93 2.66-2.06 4.02-1.06 5.42-2.21 1.36-1.21 2.31-2.56 2.86-4.47v0c-1.05-2.86-2.1-5.73-3.16-8.59v0z"/>
				<path id="path267" stroke-linejoin="round" stroke-linecap="round" d="m318.93 121.95c-2.16 3.21-3.87 5.72-5.72 7.93-1.96 2.01-3.92 3.01-5.07 4.77-1.21 1.71-0.56 3.51-1.91 5.42-1.56 1.66-4.87 3.42-6.68 5.07-1.86 1.66-2.81 3.32-4.42 4.77-1.6 1.11-2.71 1.21-5.47 3.02-3.16 1.7-9.59 5.97-12.1 7.98-2.66 1.91-3.47 4.27-2.21 3.81 1.35-0.6 7.43-5.37 10.49-6.98 2.92-1.85 4.82-1.25 7.63-3.21 2.67-2.11 5.58-5.57 8.94-8.43 3.47-3.02 8.44-7.08 11.45-8.89 2.66-2.01 4.02-1.15 5.42-2.26 1.36-1.2 2.31-2.61 2.86-4.42v0c-1.05-2.86-2.11-5.72-3.21-8.58v0z"/>
		</g>
		<g id="g269" stroke-width=".036">
			<path id="path271" d="m189 42.821c3.31-0.904 11.89-3.163 17.42-4.268 5.37-1.456 14.06-2.962 14.61-2.962 0.25 0.101-7.63 2.46-12.2 3.766-4.82 1.205-11.25 2.36-15.02 3.263-3.81 0.653-6.02 1.306-6.82 1.356-0.96-0.05-1.26-0.251 2.01-1.155z"/>
			<path id="path273" d="m182.32 46.486c2.41 0.201 5.32 0.251 9.28-0.251 3.77-0.502 8.34-1.355 13.71-2.561-4.67 0.05-8.58 0.552-12.5 0.954-3.81 0.352-7.38 1.155-10.49 1.858z"/>
			<path id="path275" d="m174.89 50.654c2.41 0.301 5.32 0.301 9.29-0.201 3.76-0.502 8.33-1.355 13.7-2.561-4.67 0.101-8.58 0.402-12.5 0.904-3.82 0.351-7.38 1.154-10.49 1.858z"/>
			<path id="path277" d="m170.97 55.072c1.66 0.2 3.87 0.25 6.63-0.251 2.71-0.553 5.92-1.255 9.84-2.51-3.26 0.1-6.33 0.401-8.99 0.904-2.76 0.35-5.32 1.154-7.48 1.857z"/>
			<path id="path279" d="m166.55 59.038c1.66 0.201 3.87 0.251 6.63-0.25 2.71-0.502 5.92-1.356 9.84-2.561-3.26 0.05-6.32 0.552-8.99 0.954-2.76 0.351-5.32 1.154-7.48 1.857z"/>
			<path id="path281" d="m159.17 63.858c2.21 0.251 5.07 0 8.79-0.553 3.66-0.603 7.83-1.707 12.9-3.112-4.27 0.201-8.28 0.853-11.85 1.405-3.66 0.552-6.87 1.306-9.84 2.26z"/>
			<path id="path283" d="m148.53 68.728c2.76 0.201 6.23-0.302 10.59-0.954 4.37-0.804 9.44-2.008 15.42-3.615-5.23 0.452-9.9 1.155-14.21 1.908-4.42 0.703-8.29 1.657-11.8 2.661z"/>
			<path id="path285" d="m135.78 74.552c3.11 0.05 7.08-0.25 12.1-1.104 4.92-0.954 10.89-2.209 17.72-4.167-5.98 0.652-11.35 1.205-16.32 2.209-5.07 0.753-9.39 1.957-13.5 3.062z"/>
			<path id="path287" d="m128.35 80.376c3.11 0.05 7.07-0.251 12.1-1.105 4.92-0.954 10.89-2.209 17.72-4.167-5.98 0.653-11.35 1.205-16.32 2.209-5.07 0.753-9.39 1.958-13.5 3.063z"/>
			<path id="path289" d="m123.93 85.246c3.11 0.05 7.08-0.25 12.1-1.104 4.92-0.954 10.89-2.209 17.72-4.167-5.97 0.652-11.35 1.205-16.32 2.209-5.07 0.753-9.39 1.957-13.5 3.062z"/>
			<path id="path291" d="m113.89 91.321c3.91-0.201 8.83-0.703 14.96-2.059 6.07-1.355 13.3-3.163 21.69-5.623-7.33 1.054-13.96 2.159-20.09 3.515-6.17 1.204-11.69 2.66-16.56 4.167z"/>
			<path id="path293" d="m111.83 97.596c3.16-0.201 7.38-0.703 12.45-2.059 5.17-1.355 10.94-3.162 18.07-5.623-6.22 1.054-11.54 2.159-16.71 3.515-5.08 1.205-9.75 2.661-13.81 4.167z"/>
				<path id="path295" stroke-linejoin="round" d="m136.83 139.97l-5.62 6.03 40.31 39.56v0c-6.82-11.05-12.9-20.28-18.78-27.92-5.87-7.63-10.99-13.45-15.91-17.67v0z" stroke-linecap="round" fill="#fff"/>
				<path id="path297" stroke-linejoin="round" stroke-linecap="round" d="m114.94 113.46c3.31 0.1 7.48-0.55 12.7-2.16 5.32-1.75 16.67-7.38 18.38-7.38 1.4-0.1-6.93 5.02-9.89 7.03-3.11 1.91-5.93 2.81-8.84 4.27-3.11 1.3-6.23 2.41-9.54 3.51v0c-0.9-1.75-1.86-3.51-2.81-5.27v0z"/>
				<path id="path299" stroke-linejoin="round" stroke-linecap="round" d="m118.81 119.79c3.26 0.15 7.58-0.55 12.75-2.11 5.32-1.66 16.67-7.48 18.37-7.43 1.41-0.15-6.93 5.12-9.89 7.08-3.11 1.91-5.92 2.81-8.83 4.27-3.07 1.3-6.33 2.41-9.59 3.51v0c-0.91-1.76-1.86-3.51-2.81-5.32v0z"/>
				<path id="path301" stroke-linejoin="round" stroke-linecap="round" d="m124.48 125.81c3.31 0.15 7.48-0.55 12.7-2.11 5.27-1.65 16.77-7.48 18.43-7.43 1.25-0.15-6.83 5.13-9.94 7.08-3.12 1.81-5.93 2.77-8.84 4.22-3.11 1.26-6.23 2.51-9.54 3.57v0c-0.9-1.76-1.86-3.52-2.81-5.33v0z"/>
				<path id="path303" stroke-linejoin="round" stroke-linecap="round" d="m131.8 131.19c3.32 0.15 7.48-0.55 12.7-2.11 5.33-1.66 16.67-7.48 18.38-7.43 1.4-0.15-6.93 5.12-9.89 7.08-3.11 1.81-5.93 2.76-8.84 4.22-3.11 1.25-6.22 2.51-9.54 3.56v0c-0.9-1.76-1.85-3.51-2.81-5.32v0z"/>
				<path id="path305" stroke-linejoin="round" stroke-linecap="round" d="m138.83 137.56c2.76 0.05 6.33-0.35 10.69-1.75 4.47-1.51 13.91-6.23 15.37-6.23 0.95-0.1-5.63 4.32-8.29 5.92-2.66 1.51-4.87 2.41-7.38 3.52-2.61 1.05-5.22 2.11-8.03 2.96v0c-0.75-1.46-1.56-2.91-2.36-4.42v0z"/>
				<path id="path307" stroke-linejoin="round" stroke-linecap="round" d="m144 142.79c2.72 0.1 6.33-0.5 10.65-1.81 4.42-1.4 14.01-6.17 15.41-6.17 0.96-0.2-5.62 4.27-8.28 5.87-2.56 1.46-4.97 2.51-7.43 3.57-2.61 1.05-5.27 2.11-7.99 2.96v0c-0.75-1.46-1.55-2.91-2.36-4.42v0z"/>
				<path id="path309" stroke-linejoin="round" stroke-linecap="round" d="m150.99 151.52c2.71 0.1 6.32-0.5 10.64-1.81 4.42-1.51 14.01-6.22 15.42-6.22 0.95-0.11-5.63 4.31-8.29 5.92-2.56 1.46-4.97 2.51-7.43 3.56-2.61 1.06-5.27 2.11-7.98 2.97v0c-0.75-1.46-1.56-2.92-2.36-4.42v0z"/>
				<path id="path311" stroke-linejoin="round" stroke-linecap="round" d="m158.42 160.91c2.36 0.15 5.42-0.35 9.19-1.51 3.71-1.15 12.15-5.47 13.3-5.37 1.01 0-4.92 3.51-7.13 5.12-2.31 1.21-4.31 2.16-6.42 3.06-2.31 0.91-4.47 1.76-6.88 2.56v0c-0.66-1.25-1.36-2.56-2.06-3.86v0z"/>
				<path id="path313" stroke-linejoin="round" stroke-linecap="round" d="m163.74 166.48c2.26 0 5.07-0.3 8.64-1.46 3.51-1.15 11.34-5.02 12.45-5.02 0.95-0.15-4.72 3.47-6.73 4.82-2.16 1.06-4.02 2.01-5.98 2.86-2.1 0.86-4.26 1.66-6.47 2.41v0c-0.6-1.2-1.26-2.4-1.91-3.61v0z"/>
				<path id="path315" stroke-linejoin="round" stroke-linecap="round" d="m167.96 174.61c2.26 0 5.07-0.3 8.63-1.45 3.67-1.16 11.25-5.02 12.51-5.02 0.95-0.15-4.72 3.46-6.73 4.82-2.21 1.05-3.97 2-6.03 2.86-2.1 0.85-4.26 1.66-6.47 2.41v0c-0.61-1.21-1.26-2.41-1.91-3.62v0z"/>
				<path id="path317" stroke-linejoin="round" stroke-linecap="round" d="m173.28 181.74c1.91 0.15 4.52-0.4 7.63-1.25 3.27-1.06 9.84-4.42 11-4.47 0.65-0.1-3.97 3.06-5.93 4.27-2.01 1.05-3.51 1.71-5.32 2.51-1.86 0.75-3.76 1.45-5.72 2.11v0c-0.56-1.06-1.11-2.11-1.66-3.17v0z"/>
				<path id="path319" stroke-linejoin="round" stroke-linecap="round" d="m177.15 189.17c1.7 0.05 3.96-0.25 6.77-1.1 2.72-1.05 8.89-3.87 9.79-3.97 0.61-0.15-3.61 2.71-5.27 3.77-1.8 0.95-3.11 1.45-4.72 2.26-1.7 0.6-3.26 1.35-5.07 1.85v0c-0.5-0.9-1-1.85-1.5-2.81v0z"/>
				<path id="path321" stroke-linejoin="round" stroke-linecap="round" d="m181.77 195.75c1.6 0.05 3.71-0.3 6.32-1.05 2.66-0.96 8.23-3.62 9.14-3.72 0.6-0.15-3.36 2.56-4.92 3.52-1.71 0.9-2.91 1.35-4.42 2.1-1.61 0.56-3.11 1.21-4.72 1.76v0c-0.45-0.85-0.9-1.7-1.4-2.61v0z"/>
				<path id="path323" stroke-linejoin="round" stroke-linecap="round" d="m184.23 202.73c1.6 0.1 3.71-0.3 6.32-1.21 2.56-1.05 8.34-4.06 9.19-4.16 0.65-0.05-3.52 2.76-4.97 3.96-1.66 1.01-2.86 1.56-4.37 2.41-1.6 0.66-3.06 1.46-4.77 2.01v0c-0.45-1-0.9-2.01-1.4-3.01v0z"/>
				<path id="path325" stroke-linejoin="round" stroke-linecap="round" d="m187.74 207.35c1.66 0.1 3.72-0.3 6.38-1.21 2.66-1 8.23-4.21 9.13-4.21 0.61-0.1-3.36 2.86-4.92 4.01-1.7 0.86-2.91 1.71-4.41 2.36-1.61 0.71-3.12 1.31-4.72 2.01v0c-0.46-0.95-0.96-1.96-1.46-2.96v0z"/>
				<path id="path327" stroke-linejoin="round" stroke-linecap="round" d="m191.66 212.27c1.6 0.1 3.71-0.3 6.32-1.21 2.66-1.05 8.24-4.06 9.14-4.16 0.6-0.05-3.36 2.76-4.92 3.96-1.66 1.01-2.86 1.56-4.37 2.41-1.61 0.65-3.06 1.46-4.77 2.01v0c-0.45-1-0.9-2.01-1.4-3.01v0z"/>
		</g>
		<g id="g329" stroke-linejoin="round" stroke-linecap="round" stroke-width=".036">
			<g id="g331">
					<path id="path333" d="m223.14 225.62c2.46-2.16 6.22-5.87 11.29-10.94 5.12-5.22 13.36-14.61 19.08-19.83 5.52-5.33 7.28-7.33 14.16-11.65 6.83-4.47 17.72-10.59 26.51-14.51 8.58-3.81 17.92-6.83 25.1-8.84 7.03-2.26 11.45-2.96 17.32-4.61 5.73-1.86 11.5-3.72 17.32-5.98l-8.83 6.73c-7.38 2.41-14.31 4.82-21.54 7.03-7.18 2.16-13.15 3.11-21.24 6.37-8.18 3.12-19.83 8.19-27.56 13.11-7.88 4.77-12.3 9.74-19.43 16.26-7.38 6.43-15.21 13.96-24.05 22.6-2.71 1.4-5.42 2.81-8.13 4.26z" fill="#fff"/>
					<path id="path335" d="m240.46 216.79c6.17-3.42 15.11-8.19 27.21-14.86 12.1-6.78 33.09-17.88 44.93-24.76 11.75-6.77 19.94-12.15 25.11-15.91-12.4 3.41-22.9 6.78-31.48 9.89-8.74 3.01-13.21 4.87-20.19 8.83-7.27 3.87-14.55 8.69-22.24 14.87-7.73 6.17-15.31 13.3-23.34 21.94z" fill="#fff"/>
					<path id="path337" d="m323.55 125.21c1.2 1.61 2.01 3.61 2.81 6.02 0.6 2.36 1.46 5.07 1.41 8.14-0.15 2.86-0.35 6.17-1.76 9.19-1.51 2.81-3.61 5.52-6.73 8.13 8.69-2.46 16.22-4.82 23-7.08 6.77-2.36 12.35-3.06 17.32-6.73 4.72-3.86 9.34-10.99 11.34-15.56 1.91-4.57 2.41-9.54 0.36-11.65-2.26-2.16-7.03-2.31-12.76-1.41-5.77 0.86-15.86 4.32-21.59 6.33-5.87 1.91-10.34 3.26-13.4 4.62z" fill="#fff"/>
					<path id="path339" d="m323.9 129.73c4.72-1.86 9.84-3.72 15.56-5.77 5.63-2.16 16.72-6.18 18.38-6.43 1.35-0.2-3.77 2.96-9.19 5.42-5.42 2.41-12.95 5.17-22.99 8.69-0.56-0.61-1.16-1.26-1.76-1.91z"/>
					<path id="path341" d="m324.96 136.36c3.61-1.66 7.63-3.17 12.04-4.92 4.37-1.91 13.01-5.28 14.26-5.48 1.01-0.15-2.91 2.56-7.13 4.67-4.21 1.96-10.09 4.42-17.82 7.38-0.45-0.55-0.9-1.1-1.35-1.65z"/>
					<path id="path343" d="m324.6 142.03c3.62-1.51 7.64-3.21 12.05-4.92 4.37-1.86 13.01-5.37 14.26-5.52 1.01-0.3-2.91 2.61-7.13 4.67-4.22 2-10.09 4.41-17.82 7.43-0.45-0.56-0.9-1.11-1.36-1.66z"/>
			</g>
			<g id="g345">
					<path id="path347" d="m187.74 210.41c-3.46 3.01-7.18 5.87-10.59 9.19-3.57 3.11-7.69 5.82-10.6 9.89-3.01 4.07-7.03 10.59-7.43 14.16-0.5 3.41-0.05 5.87 4.62 6.02 4.57-0.15 13-2.15 22.59-6.02 9.44-3.97 20.39-9.44 33.59-16.97 0.65-2.46 2.31-5.22 4.97-8.49 2.71-3.21 6.23-6.93 10.95-10.94-8.89 4.72-16.37 8.13-22.24 10.24-6.08 1.96-10.05 2.21-13.46 2.11-3.46-0.35-5.12-1.15-7.08-2.81-2.11-1.61-3.81-3.67-5.32-6.38z" fill="#fff"/>
					<path id="path349" d="m191.3 213.67c-6.72 3.92-10.79 6.38-12.4 7.79-1.55 1.15 0.51 0.95 2.87 0 2.05-1.06 5.42-3.07 9.89-6.03-0.1-0.55-0.2-1.15-0.36-1.76z"/>
					<path id="path351" d="m194.62 216.54c-12.15 7.28-18.73 11.49-20.49 12.85-1.6 1.15 6.78-3.11 10.45-5.07 3.51-1.96 6.72-4.27 10.24-6.73-0.05-0.35-0.1-0.7-0.2-1.05z"/>
					<path id="path353" d="m198.74 220.4c-16.78 10.14-25.96 15.97-28.37 17.88-2.26 1.75 9.49-4.47 14.51-7.08 4.77-2.77 9.44-5.88 14.21-9.34-0.1-0.46-0.2-0.96-0.35-1.46z"/>
			</g>
		</g>
	</g>
</g>
<metadata><rdf:RDF><cc:Work><dc:format>image/svg+xml</dc:format><dc:type rdf:resource="http://purl.org/dc/dcmitype/StillImage"/><cc:license rdf:resource="http://creativecommons.org/licenses/publicdomain/"/><dc:publisher><cc:Agent rdf:about="http://openclipart.org/"><dc:title>Openclipart</dc:title></cc:Agent></dc:publisher><dc:title>Mad Hatter</dc:title><dc:date>2006-12-05T11:01:17</dc:date><dc:description>This image is one of a collection of 42 images by John Tenniel that were the illistrations for the inital release of Alice in Wonderland by Lewis Carrol.</dc:description><dc:source>http://openclipart.org/detail/1890/mad-hatter-by-gerald_g-1890</dc:source><dc:creator><cc:Agent><dc:title>Gerald_G</dc:title></cc:Agent></dc:creator><dc:subject><rdf:Bag><rdf:li>cartoon</rdf:li><rdf:li>clip art</rdf:li><rdf:li>clipart</rdf:li><rdf:li>coloring book</rdf:li><rdf:li>hat</rdf:li><rdf:li>hatter</rdf:li><rdf:li>mad</rdf:li><rdf:li>man</rdf:li><rdf:li>remix</rdf:li></rdf:Bag></dc:subject></cc:Work><cc:License rdf:about="http://creativecommons.org/licenses/publicdomain/"><cc:permits rdf:resource="http://creativecommons.org/ns#Reproduction"/><cc:permits rdf:resource="http://creativecommons.org/ns#Distribution"/><cc:permits rdf:resource="http://creativecommons.org/ns#DerivativeWorks"/></cc:License></rdf:RDF></metadata></svg>
